<?xml version="1.0" encoding="UTF-8"?>
<svg version="1.1" viewBox="0 0 900 900" width="1280" height="1280" xmlns="http://www.w3.org/2000/svg">
<path transform="translate(0)" d="m0 0h900v900h-900z" fill="#179CD9"/>
<path transform="translate(0)" d="m0 0h900v900h-900zm418 63-1 1v62l-29 3-3 1-3-12-7-23-7-22-4-1-62 20-2 1 3 10 12 36 3 8v6l-10 4-10 5-4 3-4-1-7-11-10-13-12-17-4-6-5 1-11 8-21 16-20 13v4l12 16 10 14 9 12 3 5v5l-4 2-12 12-3 4-5-2-10-8-18-13-16-11-4 1-10 13-22 30-5 6v2h-2l2 4 17 13 18 13 12 8-2 6-9 17-2 5-6-1-44-14-6-3-3 1-14 41-7 21 1 4 36 12 17 6 3 3-3 17-1 12h-61v69l61 1 3 22v8l-41 14-12 4-3 2 3 12 12 36 6 17 9-1 40-14 6-2h4l8 17 4 6v5l-19 14-14 10-11 8-2 2 1 6 6 9 13 17 11 15 6 9 5-1 11-7 19-14 13-10 4-2 20 20-1 5-14 19-10 14-7 9-2 2 1 4 12 9 18 13 16 12 7 5h3l10-14 12-16 10-15 2-5 10 6 16 8 3 1-18 53-1 5 8 4 35 11 19 7h4l12-36 6-20 1-1 14 1 17 2-1 62h70l1-62 22-3 7-1 5 13 13 42 2 4 45-15 20-7-1-7-5-17-10-28-1-6 8-5 16-9 4 1 12 17 12 16 10 14 4-1 52-39-2-5-9-12-10-14-9-12-4-5 1-4 12-12 6-8 5 2 15 11 18 13 12 9h3l12-17 14-19 9-13 4-6-2-4-11-7-19-14-14-10-3-1 3-7 9-17 2-4 9 2 36 12 11 4 3-1 12-36 8-25-1-5-40-13-15-5-1-1 1-10 3-18 1-2 60-1v-69h-62l-2-31 7-3 36-12 14-5-1-6-7-19-6-19-4-12-4-10-10 3-31 10-17 5-8-15-6-13 5-2 18-13 12-9 13-10-1-6-14-19-12-16-11-16-5 1-14 10-18 14-14 10-17-17-4-3 1-4 10-13 20-28 4-6v-2l-11-7-17-13-14-10-13-9-4 2-11 16-22 30-5-1-19-10-3-1 3-12 15-45v-3l-45-15-16-5-4-3-3 5-11 35-5 16-1 3-22-2h-9v-63l-31-1z" fill="#FDFDFC"/>
<path transform="translate(279,270)" d="m0 0 10 1 25 6 36 12 29 12 22 11 19 11 13 8 5 4 5 3 4 4 4 2 6-4 8-4 17-11 9-7 9-4 4-3 10-4 6-2 1-3 9-1v-2l9-4 32-12 37-11 8-2h7l5 5 8 21 8 22 3 9 30 80 14 37 7 20 8 20 7 17 2 8-4 3-41 9-29 8-22 8-29 12-21 10-24 14-21 12-19 12-16 10-8 6-18 12-5 3-9 1-11-4-28-21-15-10-18-11-24-14-27-14-22-10-26-10-22-8-37-9-29-6-2-1 1-8 8-20 13-35 11-28 4-10 7-21 13-33 5-14 11-30 12-29 5-12z" fill="#FDFDFC"/>
<path transform="translate(282,276)" d="m0 0 10 2 16 4 24 7 21 8 21 9 36 18 19 12 14 10 5 4-1 6-8 10-15 25-10 19-4 10-4 16-1 18 5 13 9 10 8 6 8 4 8 2 1 2v128l-4-1-18-13-18-12-23-15-29-16-25-13-22-10-36-14-26-8-26-6-21-4-1-4 6-15 15-40 11-29 8-21 6-17 6-14 6-17 10-27 5-13 11-28z" fill="#FDFDFC"/>
<path transform="translate(418,63)" d="m0 0h37l31 1v63l21 1 10 1 5-16 8-25 5-16 3-2 3 3 47 15 12 4 2 1-2 9-12 36-4 13v2l21 10 3 2h3l9-12 10-14 13-18 3-4 5 2 14 10 18 13 13 10 7 4-2 5-12 17-14 19-7 9 1 4 10 9 9 10 7-4 18-14 16-12 8-5h3l11 16 10 13 14 19 3 5v4l-13 10-16 12-17 12h-2l8 17 6 11 36-11 20-7 3 1 19 57 2 4v4l-37 13-19 6-1 3 2 29h62v69l-60 1-2 7-3 18v5l7 3 43 14 7 3-1 7-11 35-8 23-3 1-34-12-19-6-4 1-8 16-4 7-1 4 4 2 17 12 18 13 10 7-2 5-11 16-12 16-12 17-4 4-10-8-18-13-17-12-4-3-3 1-8 10-10 10 1 4 10 13 12 17 10 13 1 4-13 10-12 9-19 14-9 7-4-1-12-17-10-13-11-16-4-1-16 9-8 5 1 6 12 34 4 14v4l-25 9-36 12-4 1-4-10-13-42-3-7-7 1-22 3-1 62h-70l1-62-26-3h-5l-3 8-14 43-2 6-6-1-57-19-3-2 1-5 18-53-5-2-16-8-8-5-2 5-11 16-11 15-10 14-4-1-14-10-16-12-17-12-6-5 1-4 6-7 26-36 1-5-20-20-5 3-13 10-18 13-13 8-4-1-10-15-10-13-14-19-2-4 1-5 10-8 12-8 16-12 7-5-1-7-6-10-5-11-6 1-36 12-11 4h-6l-12-36-8-23-1-6 5-3 51-17-1-16-2-14-61-1v-69h61l2-16 2-14-8-4-43-14-6-3 1-6 12-36 8-23 3-1 10 4 40 13 6 1 9-19 4-7v-2l-15-10-19-14-15-12v-2h2l2-4 10-13 10-14 14-19 2-2 5 1 15 11 14 10 16 12 4-2 7-8 8-8h2l-1-7-28-38-6-8 2-4 16-10 21-16 15-11h4l11 16 12 16 9 13 2 3 4-1 9-5 10-5 4-1v-6l-14-41-4-11v-2l36-12 28-9 4 1 8 25 9 30v2l11-2 21-2v-62zm11 9-2 1-1 7v54l-47 5-4-16-7-26-5-13-5-1-37 12-9 4 1 5 16 48v5l-10 5-11 5-10 7-2 2h-5l-9-10-10-15-8-10-7-10-2-3-4 1-8 7-19 14-11 7-1 3 14 19 8 12 11 15 1 4-13 12-8 8-9 12-3 1-2-4-13-12-17-12-10-8-3-2-4 1-6 9-14 20-8 11 2 4 19 14 14 10 10 7h2v6l-13 23-3 8-1 6-7-2-17-6-21-6-12-4-4 1-13 40-1 8 7 4 45 15 3 2-3 20-1 14-2 7-4 2-55 1-1 1v51l1 1 12 1h47l1 2 5 44-18 3-13 5-12 4-9 4-4 3 3 10 13 38 10-2 11-4 24-8 10-4 3 1 10 21 8 13 1 7-16 10-16 12-15 12 2 6 13 17 10 13 3 5 6-1 12-9 3-1v-2l5-2 13-9 5-5 5-4 4 2 13 13h2v2l8 7 6 8-1 5-10 10-7 10-10 15-6 8 2 4 11 7 4 4 6 3 7 6 5 3 4 3 5-1 12-15 9-13 7-10 6-8 5 2 10 6 21 10 2 2v9l-8 22-7 21v6l4 3 21 7 13 4 5 2h5l3-7 3-9 6-16 7-23 5-1 27 4 11 1 2 1v58l1 3h51l2-2-1-59 1-1 38-5h6l1 1 2 9 15 45 1 1 9-1 15-5 13-5 10-4 2-2-1-7-4-13-4-10-5-14-3-11 4-4 34-17h2l10 14 11 15 10 13 3 4 4-1 17-12 10-7 11-8-1-6-11-14-11-16-8-10 1-7 12-13 9-8 4-7 6 1 7 6 9 5 15 11 9 7 3 2 5-1 9-12 13-18 6-8-1-4-17-13-15-11-13-9v-7l11-17 7-14 4-2 26 8 27 9 3-3 8-24 5-17 1-4-5-3-11-5-29-9-10-3v-10l5-35h59l1-1v-52l-1-1h-60l-2-26-1-1-1-7v-12l20-6 19-7 17-6-3-10-12-37-3-2-51 17-7-1-3-7-7-16-7-13v-6l12-7 14-10 11-8 10-7-2-5-3-5-2-1-3-5-8-10-4-7h-2l-4-8-4-1-11 8-18 13-15 12-6 1-9-11-12-13-6-4-1-1 1-7 12-16 10-14 6-8 4-6-2-4-9-7h-2v-2l-11-7-9-7-9-5-8 10-4 6-13 18-8 13-2 3-12-6-22-12-5-3 1-10 12-36 3-8v-5l-16-6-14-5-18-4h-2l-5 16-6 18-7 19v3l-43-5-1-1-1-60-15-1z" fill="#A8C438"/>
<path transform="translate(279,270)" d="m0 0 10 1 25 6 36 12 29 12 22 11 19 11 13 8 5 4 5 3 4 4 4 2 6-4 8-4 17-11 9-7 9-4 4-3 10-4 6-2 1-3 9-1v-2l9-4 32-12 37-11 8-2h7l5 5 8 21 8 22 3 9 30 80 14 37 7 20 8 20 7 17 2 8-4 3-41 9-29 8-22 8-29 12-21 10-24 14-21 12-19 12-16 10-8 6-18 12-5 3-9 1-11-4-28-21-15-10-18-11-24-14-27-14-22-10-26-10-22-8-37-9-29-6-2-1 1-8 8-20 13-35 11-28 4-10 7-21 13-33 5-14 11-30 12-29 5-12zm3 6-8 18-8 21-6 16-11 30-12 31-11 30-14 37-15 40-2 4 1 4 21 4 26 6 29 9 28 11 23 10 16 8 30 16 17 10 30 20 17 12 8 6h3v-128l-1-2-13-4-11-8-7-7-5-10-2-6 1-18 5-20 8-16 10-18 12-19 7-9-1-5-12-9-17-11-16-9-24-12-32-14-21-7-23-7-17-4zm334 0-43 12-34 13-29 14-23 13-22 14-9 6-3 1 2 6 10 15 11 18 9 15 7 16 4 18 1 17-4 11-5 8-9 7-20 10v125l1 3 4-1 17-12 19-13 19-12 10-7 1-5 3-16v-9l-8-31-3-8-6-12-7-10-4-10 6 2-2 2 1 4 3 3 5 2h8l-1 2-8 2v2l10 4 8 5 7 2h6 3 3v2l-2-1-13-1-9-4-5-1v5l2 2 12 2-1 3-3 1v-2l-4 1 4 5-5-3h-2l1 6 3 7 4 7 5 1 4-3-1-9 5 1 4-4 1-2 1 4 5 3 3 5 2 7 3 1 12-7 5-4-2-3 8-1 8-4 16-6-4-4 6 2 1 2-17 6-16 10-14 11v7l2 3 9-3 38-14 36-12 24-6 21-4 7-1-2-8-11-27-11-29-11-30-13-35-6-15-10-26-6-18-7-18-9-25z" fill="#DF8A35"/>
<path transform="translate(418,63)" d="m0 0h37l31 1v63l21 1 10 1 5-16 8-25 5-16 3-2 3 3 47 15 12 4 2 1-2 9-12 36-4 13v2l21 10 3 2h3l9-12 10-14 13-18 3-4 5 2 14 10 18 13 13 10 7 4-2 5-12 17-14 19-7 9 1 4 10 9 9 10 7-4 18-14 16-12 8-5h3l11 16 10 13 14 19 3 5v4l-13 10-16 12-17 12h-2l8 17 6 11 36-11 20-7 3 1 19 57 2 4v4l-37 13-19 6-1 3 2 29h62v1h-38l1 2 4 2 26 2 1 1v51l-2 4h-15l-41-1v-1h55v-52h-57l-3-1-2-14-1-12-1-1-1-7v-12l7-3 16-5 32-11h2l-8-22-8-25-2-1-51 17-7-1-7-15-11-22v-6l16-10 22-16 9-6-4-10-3-1-3-5-8-10-3-4v-3h-2l-4-7-4-1-11 8-18 13-15 12-6 1-11-13-10-11-6-4-2-2 1-7 12-16 10-14 6-8 4-6-2-4-10-7v-2l-5-2-14-10-9-6-5 5-7 10-13 18-8 13-2 4-10-4-10-6-20-11-1-1 1-10 12-36 4-13-10-3-20-7-18-4-2-1-4 16-6 18-8 22h-9l-34-4-2-2v-60h-51l-1 61-9 2-30 3h-8l-7-23-6-21-4-11-7 1-42 14 1 5 16 48v5l-8 5-13 5-11 8-2 2h-5l-7-7-11-16-10-13-7-10-1-2-4 1-8 7-19 14-11 7 2 5 10 13 10 15 11 15 1 4-15 14-9 10-7 9h-3l-5-6-8-7-16-12-9-7-7-5h-3l-6 9-14 20-8 11 1 3 19 14 14 10 10 7 3 3-1 6-12 21-3 8-2 6h-6l-12-5-33-10-9-2-13 40-1 8 10 4 11 4 24 8 8 3 2 4-3 18-1 14-2 7-5 3-55 1v51l12 1v1l-12 1-2-2-1-48 2-7 54-1v-2h-3v-2h-59v67h18v1h-19v-69h61l2-16 2-14-8-4-43-14-6-3 1-6 12-36 8-23 3-1 10 4 40 13 6 1 9-19 4-7v-2l-15-10-19-14-15-12v-2h2l2-4 10-13 10-14 14-19 2-2 5 1 15 11 14 10 16 12 4-2 7-8 8-8h2l-1-7-28-38-6-8 2-4 16-10 21-16 15-11h4l11 16 12 16 9 13 2 3 4-1 9-5 10-5 4-1v-6l-14-41-4-11v-2l36-12 28-9 4 1 8 25 9 30v2l11-2 21-2v-62z" fill="#A9C636"/>
<path transform="translate(72,413)" d="m0 0h59v2h3v2l-3 1-51 1-1 13 1 41 5 1 38-1h17l2 3 4 36v8l-13 3-14 4-9 4-9 3-9 4-1 3 7 19 8 24v3l45-15 10-4 4 2 10 21 8 13 1 7-9 6-19 13-10 8-9 7 2 6 13 17 10 13 2 5 8-3 10-8h3v-2l16-11h2l1-3 9-7 4 2 1 3 4 2 8 8 2 1v2l4 2 7 7 4 6-1 5-10 10-7 10-10 15-6 8 1 3 11 7 4 3v2l5 1 8 7 5 3 4 3 5-1 13-17 12-17 7-10 4-2 13 8 21 10 3 3v9l-8 22-7 21v6l9 4 15 5 13 4 5 2h5l4-13 6-14 8-27 3-2 25 3 5 1v1l-16-1-13-1-3 3-1 6 2-2 2-3h2l-2 12-14 43-2 6-6-1-57-19-3-2 1-5 18-53-5-2-16-8-8-5-2 5-11 16-11 15-10 14-4-1-14-10-16-12-17-12-6-5 1-4 6-7 26-36 1-5-20-20-5 3-13 10-18 13-13 8-4-1-10-15-10-13-14-19-2-4 1-5 10-8 12-8 16-12 7-5-1-7-6-10-5-11-6 1-36 12-11 4h-6l-12-36-8-23-1-6 5-3 51-17-1-16-2-14-42-1-18-1z" fill="#A8C63C"/>
<path transform="translate(485,70)" d="m0 0h1v57l21 1 10 1 5-16 8-25 5-16 3-2 3 3 47 15 12 4 2 1-2 9-12 36-4 13v2l21 10 3 2h3l9-12 10-14 13-18 3-4 5 2 14 10 18 13 13 10 7 4-2 5-12 17-14 19-7 9 1 4 10 9 9 10 7-4 18-14 16-12 8-5h3l11 16 10 13 14 19 3 5v4l-13 10-16 12-17 12h-2l8 17 6 11 36-11 20-7 3 1 19 57 2 4v4l-37 13-19 6-1 3 2 29h62v1h-38l1 2 4 2 26 2 1 1v51l-2 4h-15l-41-1v-1h55v-52h-57l-3-1-2-14-1-12-1-1-1-7v-12l7-3 16-5 32-11h2l-8-22-8-25-2-1-51 17-7-1-7-15-11-22v-6l16-10 22-16 9-6-4-10-3-1-3-5-8-10-3-4v-3h-2l-4-7-4-1-11 8-18 13-15 12-6 1-11-13-10-11-6-4-2-2 1-7 12-16 10-14 6-8 4-6-2-4-10-7v-2l-5-2-14-10-9-6-5 5-7 10-13 18-8 13-2 4-10-4-10-6-20-11-1-1 1-10 12-36 4-13-10-3-20-7-18-4-2-1-4 16-6 18-8 22h-9l-34-4-2-2v-60h2l1 4-1 2h2l2 4z" fill="#9FC251"/>
<path transform="translate(203,467)" d="m0 0 1 4-6 17-3 8v7l1 3 21 4 26 6 29 9 28 11 23 10 16 8 30 16 17 10 30 20 17 12 8 6 3 1-1-14v-116h17v129l7-4 14-10 19-13 19-12 10-7 1-7 2-13v-9l-8-31-3-8-6-12-7-10-3-10 7 2-2 2 1 4 2 2 5 2 8 1-1 3-8 1v2l9 2 9 6 7 2h6 3l3 1v2l-15-1-9-4-5-2 2 6 12 3v2l4 1-8 1v-2l-3 1 4 6-5-2-3-2 5 13 4 7 6-1 1-5v-5l7-1 3-5h1v5l4 1 3 3 2 4 2 7 6-2 11-7v-4l10-3 13-6 7-2-2-3-3-2 8 1 3 4-11 5-8 3-14 8-12 10-2 1v7l1 2 9-3 38-14 36-12 24-6 21-4 11-1 2-1 1 4-4 3-41 9-29 8-22 8-29 12-21 10-24 14-21 12-19 12-16 10-8 6-18 12-5 3-9 1-11-4-28-21-15-10-18-11-24-14-27-14-22-10-26-10-22-8-37-9-29-6-2-1 1-8 8-20z" fill="#CF9F5F"/>
<path transform="translate(446,270)" d="m0 0h24l9 3h9l10 4v2l5 2 7 4 6 7v10l-1 2h5l-4 3-8 4-7 3-4 3-7 3-5 2-1 3-18 11-6 4-10 5-7-5-2-3-6-3v-2l-6-2-19-12-27-14-1-2h4l-1-6-1-4 3-4 15-1-6-1 4-3 8-8 3-1 18-1z" fill="#3AB3EA"/>
<path transform="translate(612,716)" d="m0 0 3 1 10 14 11 15 10 13 1 3h-2v-2l-4-1-1-4-4-2v-3h-2v-3h-3l2 4 1 3h2v3l-3 1-10-13-11-16-4-1-16 9-8 5 1 6 12 34 4 14v4l-25 9-36 12-4 1-4-10-13-42-3-7-7 1-22 3-1 62h-70l1-62-26-3h-5l-2 1 1-5-3 3-1 2h-2v-6l4-4 40 3 3 2v61l51-1 1-1-1-59 2-2 38-5h6l2 2 2 9 15 45 9-1 15-5 13-5 10-4 1-5-5-16-4-10-5-14-3-11 5-5 16-8z" fill="#A9C63C"/>
<path transform="translate(559,338)" d="m0 0 6 1 6 7v8h16l10 19 3 6-1 3-4 1 7 1 6 9 7 15-1 3-11-4-6-2-8-1-9-4-7-4v2h-3v-2l-10-3-3-5-4-8v-2h-2l-4-4-2 4-9 7-4 4-8 1-1 5-5 2-8-7-4-8-1-5-1-2h-6l-10-16-1-5 2-1h27l3 4 2 8 10-7 6-4 4-5 9-5z" fill="#CAEFF6"/>
<path transform="translate(737,194)" d="m0 0h3l11 16 10 13 14 19 3 5v4l-13 10-16 12-17 12h-2l8 17 6 11 36-11 20-7 3 1 19 57 2 4v4l-37 13-19 6-1 3 2 29h62v1h-38l1 2 4 2 26 2 1 1v51l-2 4h-15l-41-1v-1h55v-52h-57l-3-1-2-14-1-12-1-1-1-7v-12l7-3 16-5 32-11h2l-8-22-8-25-2-1-51 17-7-1-7-15-11-22v-6l16-10 22-16 9-6-4-10-3-1-3-5-8-10-3-4v-3h-2l-4-7v-3l-7 2-12 7-10 7-9 2 1-4 14-11 18-13z" fill="#A9C737"/>
<path transform="translate(346,429)" d="m0 0 5 1 5 5 6 10 4 10 11-1h9l13 3v7l-5 13-6 8-3-1 1-4 6-11 1-8-4-2h-12l-9 1-1 13-2-1-3-8-6 1 2 4 8 6 3 3 3 1-2 5-1 7-2 6h-2l-1-18-1-3-6-2-7-3h-7l-6 4-5 3-1 2-1 16 5 5 3 2 1 3 3 3-10-1-1 9h6v2l-3 1 1 7 4 10 5 6h5l6-7 4-8 2-6h3l-1 8-6 11-8 7h-5l-7-7-7-14-2-5-7 1h-15l-7-2-3-2v-8l3-9 7-10 3-3-6-8-6-10-1-3v-10l7-3 4-1h12l10 2 3-10 6-11z" fill="#0F6DA3"/>
<path transform="translate(377,458)" d="m0 0h12l5 3-1 8-6 11-1 4 2 2-2 4 9 12 4 9v7l-8 5h-19l-8-1-3 1-3 9-6 9-3 3h-5l-6-7-5-13 1-5h3v-2h-6v-9l4-1h4l-2-4-6-4-2-4 1-15 4-5 8-4 1-1h7l13 6 2 3v18h2l3-15 2-3-4-1-8-7-5-4 1-3 6-1 4 9 2-12z" fill="#1487C2"/>
<path transform="translate(564,448)" d="m0 0 4 1-1 6 3-1 2-5 3 1 3 7h2v-6h3l2 5 1 20 1 9v10l-4-2v-10l1-3h-3v6l-2-1-2-8-2-14-2-4-6 2-8 7-6 8-3 8-3 1 14 4 1-7 5-5-1 8-1 5 30 10 16 4 2 4 2 2-16 6-11 5h-5l2 4-15 9-4 1-2-2-2-7-3-5-4-2-1-4-3 5-4 1-3-1 1 9-4 3-5-1-4-7-4-10v-3l5 2v-1l-2-4h4v2l4-2v-2l-12-2-2-2v-5l6 1 8 4 13 1 2 1v-2l-5-1-1 1-9-1-7-3-6-4-9-3v-2l8-2 1-2h-8l-6-3-3-3 1-4 8 1 15 5 4-1 7-9 6-6h2l2-4 6-7 2-5z" fill="#E6F8FA"/>
<path transform="translate(217,655)" d="m0 0 1 2 4 2 8 8 2 1v2l4 2 7 7 4 6-1 5-10 10-7 10-10 15-6 8 1 3 11 7 4 3v2l5 1 8 7 5 3 4 3 5-1 13-17 12-17 7-10 4-2 13 8 21 10 3 3v9l-8 22-7 21v6l9 4 15 5 13 4 5 2h5l4-13 6-14 8-27 3-2 25 3 5 1v1l-16-1-13-1-3 3-1 6 2-2 2-3h2l-2 12-14 43-2 6-6-1-57-19-3-2 1-5 18-53-5-2-16-8-8-5-2 5-11 16-11 15-10 14-4-1-14-10-16-12-17-12-3-3h2l-1-3 5-2 6-11h2l-1-5 3-3 2-6h3l1-4 4-4 2-3 4-1 4-4 3-5 1-5h-2l-4-4v-2l-5-2-5-6-8-7-2-3z" fill="#A8C437"/>
<path transform="translate(160,210)" d="m0 0 2 1-13 18-9 13-3 5 5 5 18 13 11 8 10 7 3 3-1 6-12 21-3 8-2 6h-6l-12-5-33-10-9-2-13 40-1 8 10 4 11 4 24 8 8 3 2 4-3 18-1 14-2 7-5 3-55 1v51l12 1v1l-12 1-2-2-1-48 2-7 54-1v-2h-3v-2h-59v67h18v1h-19v-69h61l2-16 2-14-8-4-43-14-6-3 1-6 12-36 8-23 3-1 10 4 40 13 6 1 9-19 4-7v-2l-15-10-19-14-5-4-4-6v-3l3 1 1-5h2l2-7 5-2 3-6h2l2-4 2-5v-6l6-2 2 1z" fill="#A7C53C"/>
<path transform="translate(351,327)" d="m0 0h6l2 1 2 5 1 23v21l-15 2-24 2h-22l-1-1-1-18v-34z" fill="#FCFDFC"/>
<path transform="translate(793,413)" d="m0 0h38v68l-60 1-2 7-3 18v5l7 3 43 14 7 3-1 7-11 35-8 23-3 1-14-5-1-2-39-13v-2h2v-2l9 1 9 3 13 4 6 2 11 2 2-2 8-24 5-17 1-4-15-7-29-9-10-3-1-1v-10l5-35 5-1 41 1h15l1-3v-51l-12-1-40-1v-1l22-1z" fill="#ABC735"/>
<path transform="translate(374,313)" d="m0 0 3 1-3 1-1 18-1 44 1 4v5l3-1v2l-9 4h-4l-1 3-7 2-3 7-7 3-22 3-19 1-2-4 12-1 6-2 3-3h6v-2l-26 1-9-3-11-12-10-10-1-3-1-25v-19l9-3h3l1 3v26l1 4v16h2l1-53 3-1 2 55 1 14 3 7 11-1 45-4 13-2 2-1-3-1v-2l-7-1-2-1h-12l-19 2h-24l-1-3 36-2 26-2-2-44-1-5-48-1v-1l53-1 6-2 1-6h-5v-2z" fill="#E9FAFB"/>
<path transform="translate(72,413)" d="m0 0h59v2h3v2l-3 1-51 1-1 13 1 41 5 1 38-1h17l2 3 4 36v8l-13 3-14 4-9 4-9 3-9 4-1 3 7 19 6 18-1 8-4-2v-2h-3v-2h-2l-12-36-3-12 5-3 51-17-1-16-2-14-42-1-18-1z" fill="#AAC735"/>
<path transform="translate(279,270)" d="m0 0 10 1 25 6 36 12 29 12 22 11 19 11 13 8 5 4 5 3 4 4 4 2 6-4 2 1-9 6-3 3-12-9-17-11-16-9-24-12-32-14-21-7-23-7-17-4-3-1-2 6-13 33-6 16-11 30-12 31-11 30-14 37-15 40-2 4h-2v-7l6-16 3-9 2-9 10-27 7-18 3-7 7-21 13-33 5-14 11-30 12-29 5-12z" fill="#C5A167"/>
<path transform="translate(505,472)" d="m0 0 7 2-2 2 1 4 2 2 5 2 8 1-1 3-8 1v2l9 2 9 6 7 2h6 3l3 1v2l-15-1-9-4-5-2 2 6 12 3v2l4 1-8 1v-2l-3 1 4 6-5-2-3-2 5 13 4 7 6-1 1-5v-5l7-1 3-5h1v5l4 1 3 3 2 4 2 7 6-2 11-7v-4l10-3 13-6 7-2-2-3-3-2 8 1 3 4-11 5-8 3-14 8-12 10-2 1v7l1 4-10 6-25 14-6 3h-3l2-11 1-8v-9l-8-31-3-8-6-12-7-10z" fill="#1280BA"/>
<path transform="translate(636,325)" d="m0 0h4l9 25 6 15 6 16 13 35 10 27 7 18 6 16 8 20v5l-1-2-8-1-4-5-3-10-6-16-5-8-5-12-4-9-5-12-7-26-11-28-4-9-4-13-2-8-1-17z" fill="#F3FDFC"/>
<path transform="translate(485,70)" d="m0 0h1v57l21 1 10 1 5-16 8-25 5-16 3-2 3 3 47 15 12 4 2 1-2 9-2 5-5-4-1-5-11-3-20-7-18-4-2-1-4 16-6 18-8 22h-9l-34-4-2-2v-60h2l1 4-1 2h2l2 4z" fill="#9DC256"/>
<path transform="translate(713,505)" d="m0 0 2 4-4 3-41 9-29 8-22 8-29 12-21 10-24 14-21 12-19 12-16 10-8 6-10 7-2-1 4-5 3-2 2-6 19-13 17-11 14-9 8-5 24-13 17-10 43-16 36-12 24-6 21-4 11-1z" fill="#B89765"/>
<path transform="translate(801,315)" d="m0 0h2v3l3 1 1 9 6 18 2 1v-1-10l2 3 7 18v4l-37 13-19 6-1 3 2 29h62v1h-38l1 2 4 2 26 2 1 1v51l-2 4h-15l-41-1v-1h55v-52h-57l-3-1-2-14-1-12-1-1-1-7v-12l7-3 16-5 32-11h2l-8-22-5-16z" fill="#A9C638"/>
<path transform="translate(448,491)" d="m0 0h6l2 1 1 87v45l5-1 5-3 2 1-11 7-9 1-7-2 3-2 1-119 1-14z" fill="#798582"/>
<path transform="translate(418,63)" d="m0 0h37l31 1-1 19-2 1-1-5h-2v-6h-53l-1 61-9 2-30 3h-8l-7-23-4-15 1-4 8 24 4 15h9l3-1 18-1 5-1 1-3 2-2-9 1h-14v-1l21-2v-62z" fill="#AAC636"/>
<path transform="translate(426,760)" d="m0 0h1l2 32 4 7 5-4 7 1 9 5 1-5h5v2l-3 2 5 3 1 1 2-4 4-4 4-11 2-1 1-12 2 2 1 46-2 1h-51l-1-3v-39z" fill="#148FC9"/>
<path transform="translate(629,284)" d="m0 0 4 5 4 10 7 19 3 9 30 80 14 37 7 20 8 20 7 17v5l-5 1-8-20-9-22-6-16-7-20-13-35-9-24-5-12-8-21-6-18-3-7-2-12-4-13z" fill="#D68C3E"/>
<path transform="translate(513,230)" d="m0 0h10l5 4v6l3-1 6-7 2-1h13l5 3 3 5v10l-3 6-6 4-3 1h-8l-7-6-3-9-1 12-8 3h-9l-5-4-2-6v-11l4-6z" fill="#F5FBFB"/>
<path transform="translate(383,755)" d="m0 0 40 3 3 2v19l-1 43 56-1 1-2 2 2v7l-13 1h-55l1-62-26-3h-5l-2 1 1-5-3 3-1 2h-2v-6z" fill="#ABC735"/>
<path transform="translate(343,470)" d="m0 0h7l13 6 2 3v17l-2 4-8 5h-2v3l11-2v8l-4 1-3-2-7-1-2-1-9 2-5 3h-2l-1-2v-6l4-1h4l-2-4-6-4-2-4 1-15 4-5 8-4z" fill="#F6FCFC"/>
<path transform="translate(575,750)" d="m0 0h2l7 18 7 21-1 5-9 4-11 5-16 5-7 2h-5l-3-7-9-26v-5h2l1 3 5 5 7 3h2v2l6-1 1-2 3 2h3l9 2 2 2 2-1-2 6 8-2 1-5v-1l-4-4 1-4 3-5v-2l-4-2 1-7h2l-4-5z" fill="#1290CB"/>
<path transform="translate(279,270)" d="m0 0 10 1 25 6 36 12 29 12 22 11 19 11 13 8 5 4 5 3 4 4 4 2 6-4 2 1-9 6-3 3-12-9-17-11-16-9-24-12-32-14-21-7-23-7-17-4-2-4-4 1-1 3h-2l2-6z" fill="#CFA561"/>
<path transform="translate(382,753)" d="m0 0 25 3 5 1v1l-16-1-13-1-3 3-1 6 2-2 2-3h2l-2 12-14 43-2 6-6-1-57-19-3-2 1-5 8-24 3 1v10l1 2-2 2v7l1 3 20 6 13 4 10 4h5l4-13 6-14 8-27z" fill="#AAC635"/>
<path transform="translate(616,270)" d="m0 0h7l5 5 5 12-1 2-3-4 5 20-1 4-9-25-2-8-21 5-28 8-34 13-29 14-23 13-22 14-9 6-3-1 4-5 5-5 15-10 7-4 4-4 5-3 7-3 4-3 10-4 6-2 1-3 9-1v-2l9-4 32-12 37-11z" fill="#D2974C"/>
<path transform="translate(564,448)" d="m0 0 4 1-1 6 3-1 2-5 3 1 3 7h2v-6h3l2 5 1 20 1 9v10l-4-2v-10l1-3h-3v6l-2-1-2-8-2-14-2-4-6 2-8 7-6 8-3 8-3 1 14 4 1-7 5-5-1 8-1 5 30 10 10 3 1 2-10-2v4l9 3v1l-10-1-6-1-1 3 5 2-3 1-4-2-2-4v-3l-16-4v-2l9-2 6 2v-2l-9-2-32-10-21-6-9-4 3-1 18 6 4-1 7-9 6-6h2l2-4 6-7 2-5z" fill="#C9EFF6"/>
<path transform="translate(700,155)" d="m0 0 3 1-2 5-12 17-14 19-7 9 1 4 10 9 9 10 7-4 5-4h2v2l11-4 11-8 10-6h6v2l-6 1-13 10-15 11-16 12-5-1-9-11-11-12-6-4-2-2 1-7 12-16 10-14 6-8 4-6v-3l3 1-4 10 6-2 5-7z" fill="#9EC254"/>
<path transform="translate(304,326)" d="m0 0 47 1v1h-52l1 34 1 21h24l19-2h12l9 3v2l4 1-3 2-13 2-56 5-4-8-1-14v-31l4-1 1-15z" fill="#EFFCFC"/>
<path transform="translate(737,194)" d="m0 0h3l11 16 10 13 14 19 3 5v4l-13 10-9 7h-5v2h-3v2l-8-1 5-5 3-4 5-4 11-8 3-2-4-10-3-1-3-5-8-10-3-4v-3h-2l-4-7v-3l-7 2-12 7-10 7-9 2 1-4 14-11 18-13z" fill="#A8C53A"/>
<path transform="translate(737,623)" d="m0 0 4 1 18 14 8 6-1 4-13 18-11 15-4 5-6-1-8-7-16-11-7-5 2-3 4 2 6 1h8l2 1 1-2 1 2 4 1 1 3h5l1 2 2-1v2l5-3v-3-2h-3l2-6 2-2h6l4-8-2-4-5-4-6-10-4-3z" fill="#1290CB"/>
<path transform="translate(289,319)" d="m0 0h2l2 55 1 14 3 9-5-3-7-8-5-6-6-4-2-5-1-25v-19l9-3h3l1 3v26l1 4v16h2l1-53z" fill="#127FBA"/>
<path transform="translate(160,210)" d="m0 0 2 1-13 18-9 13-3 5 5 5 18 13 11 8 10 7 3 3-1 6-12 21-3 8-2 6h-6l-9-4 4-1 6 1 2-7 3-7-1-6 7-13v-2l-15-10-19-14-5-4-4-6v-3l3 1 1-5h2l2-7 5-2 3-6h2l2-4 2-5v-6l6-2 2 1z" fill="#A7C43B"/>
<path transform="translate(161,568)" d="m0 0 4 2 10 21 8 13 1 7-24 16v-3l10-7 6-4 5-5v-4l-7-2-1 6h-1l-2-7-6-10-5-11-6 1-36 12-11 4h-6l-5-14 1-3v2h3l3 3v-3h3l1 5 45-15z" fill="#A9C73D"/>
<path transform="translate(329,743)" d="m0 0 1 4-8 26-1 1-1 14 7 6 14-1 2 2 1-2 7-1h3l9-12 1-3 4-4 5-12 4-4 1 4-7 23-6 14-3 11-1 1-7-1-11-4-17-5-10-4-3-2 1-10 6-17z" fill="#1190CA"/>
<path transform="translate(163,195)" d="m0 0 5 1 15 11 14 10 16 12 4-2 7-8 2 2-2 5-5 5v6l-3 2v-3h-5l-9-7-8-5-6-3-12-9-5-4-3-2h-3l-2 4-3 1-1 2-7 2v5l-3 6-2 3h-2l-1 4-3 3-3 1-3 7h-2v6l-3-1 1 4 2 3-4-2-6-5v-2h2l2-4 10-13 10-14 14-19zm65 20 2 1-2 3-3-1z" fill="#A6C338"/>
<path transform="translate(566,171)" d="m0 0h10l4 4 10 28v5l-2 1h-8l-1-6h-14l-1 5-2 1h-8l-1-1 1-8 9-27z" fill="#F7FCFC"/>
<path transform="translate(514,171)" d="m0 0h9l1 1 1 13h12l1-13 1-1h7l3 3v12l-1 22-1 1h-8l-2-2v-12l-13-1v14l-1 1h-8l-1-1-1-35z" fill="#F9FCFC"/>
<path transform="translate(358,171)" d="m0 0h11l3 3 8 21 3 9-1 5h-8l-4-6h-12l-2 5-2 1h-7l-1-1 1-7 9-28z" fill="#F7FCFC"/>
<path transform="translate(649,128)" d="m0 0 9 5 9 7 11 7v2l4 2 9 7-2 5-5 6-3 5-11 15-3 3v-6l-1-1v-7l3-7 2-7 2-3-1-5-5-5-13-10-6 1-6 3-3 1-1 2h-2l-2 6h-2v2h-2l-2 5-5 7-2-1 8-12 9-12 9-13z" fill="#1290CB"/>
<path transform="translate(346,429)" d="m0 0 5 1 5 5 6 10 4 10 11-1h9l13 3v7l-5 13-6 8-3-1 1-4 6-11 1-8-4-2h-12l-9 1-1 13-2-1-3-8-6 1 2 4 8 6 3 3 3 1-2 5-1 7-2 6h-2l-1-18-1-3-6-2-7-3h-7l-6 4h-4l1-5 7-4v-2l-3-4 13 1 9-4-1-7-6-10-5-5-5 1-4 5-4 10-3 1-1-3 7-14z" fill="#0F6FA7"/>
<path transform="translate(646,117)" d="m0 0 5 2 14 10 18 13 13 10 4 2 1 5-6 8h-3l-1 3v-2h-2l1-5 2-5-7-4-7-5v-2l-5-2-14-10-9-6-5 5-7 10h-4l-5 7-4 4h-2l-1 2-1-5 9-13 13-18z" fill="#ABC83B"/>
<path transform="translate(488,353)" d="m0 0h28l3 4 2 9-7 1-3-6v-2l-2 1-2 6-4-2v-6l1-2h-2v3h-3l-1 3-3-3v-2l-2 1 3 6v4l6 1 4 1 2-2h3l1 11 3 2v-4l-3-1 1-3 6-4 7-2 4 1-1 5h-4l-1-2-1 4 2 1 2 6h2v3h3v4l-8 1-1 5-5 2-8-7-4-8-1-5-1-2h-6l-10-16-1-5z" fill="#1998D3"/>
<path transform="translate(571,458)" d="m0 0 3 1 3 9 2 14 1 1 1-3h3v13l3 2v-6h1l1 9 2 1-9-2-17-6-1-3 2-6v-4l-4 6-1 5-8-1-7-3 4-1 1-6 6-9 8-8z" fill="#FAFDFC"/>
<path transform="translate(425,171)" d="m0 0h21l2 2v6l-1 1-11 1-1 3 12 1v9l-1 1h-12l1 4 8 1 5 1-1 7-1 1h-21l-1-1-1-15 1-20z" fill="#F8FCFC"/>
<path transform="translate(595,354)" d="m0 0h20l4 5 11 22v3h2v2l-26-3-4-7-7-12-4-9z" fill="#118EC8"/>
<path transform="translate(608,387)" d="m0 0h9l15 2 4 2 15 29-1 3-9-4-19-6-6-9z" fill="#118FCA"/>
<path transform="translate(455,171)" d="m0 0h22v9l-7 1-5 1 1 3h9l1 1v9l-12 1 1 3 11 1 1 7-2 2h-19l-2-2v-34z" fill="#F7FCFC"/>
<path transform="translate(382,171)" d="m0 0h10l3 3 5 17v3h2l3-10 4-12 2-1h9v6l-6 12-6 15-5 5h-5l-5-8-11-26z" fill="#F8FCFC"/>
<path transform="translate(217,655)" d="m0 0 1 2 4 2 8 8 2 1v2l4 2 7 7 4 6-1 5-10 10-7 10-10 15-6 8 1 3 9 6 1 4 9 6v2l5 2v2l4 2 6 4v2l3 1-3 2-5-1-20-15-17-12-3-3h2l-1-3 5-2 6-11h2l-1-5 3-3 2-6h3l1-4 4-4 2-3 4-1 4-4 3-5 1-5h-2l-4-4v-2l-5-2-5-6-8-7-2-3z" fill="#A7C43B"/>
<path transform="translate(331,170)" d="m0 0 9 2 1 5-1 3-3 1-8-1-1 4 5 1 8 4 2 3v8l-4 6-3 3-7 2-9-1-5-5 1-5 1-1h6l5 2 4-1-1-4-10-5-4-5v-8l5-6z" fill="#F7FCFC"/>
<path transform="translate(101,295)" d="m0 0 54 18h4l5-11 3-1v5l-3 7-2 7-3 1-14-3-27-8-6-2-1-2-6-1-1 3h-2l-2 6h-3l2 4-3 8-2-1-3 6h-1l1-9 9-26z" fill="#AAC63A"/>
<path transform="translate(537,70)" d="m0 0 7 4 44 14 12 4 2 1-2 9-2 5-5-4-1-5-11-3-20-7-18-4-2-1-2 8h-2v-3l-4 1 1-14z" fill="#A8C538"/>
<path transform="translate(292,713)" d="m0 0 5 1 2 1v2l-4 1-5-2-6 8-20 28-9 11-5-1-5-4-5-3-8-6-3-1-4-4-2-4-3-2 6 1 4 2v2l13 2 2 5 1 2 7-1 1-4h2l2-6 3-3h2l2-5 9-7 5-5 4 1 2-5 4-3z" fill="#118FCA"/>
<path transform="translate(290,715)" d="m0 0 5 2-3 1-4 2-2 3v8l1 3-14 20-7 9-9 13-4-1-7-5 4-3-2-1v-2l-5-2-5-4v-2l-5-2v-2l-5-2-6-5 1-3 6 4v2l5 1 8 7 5 3 4 3 5-1 13-17 12-17 7-10z" fill="#A7C53C"/>
<path transform="translate(482,664)" d="m0 0h12l5 3 3 3v9l1 1v9l-3 3-8 2h-11l-1-1-1-8v-12l1-7z" fill="#F7FCFC"/>
<path transform="translate(513,230)" d="m0 0h10l5 4v6h3l-1 4-1 13-8 3h-9l-5-4-2-6v-11l4-6z" fill="#38B2E9"/>
<path transform="translate(801,554)" d="m0 0 4 1v3h2l-3 10-5 16-4 3-32-11 1-4 3-1 10-2 6-3h2v-2l5 1h2v-3l6-3z" fill="#1190CB"/>
<path transform="translate(203,467)" d="m0 0 1 4-6 17-3 8v7l1 3 21 4 26 6 29 9-3 2-7-1 18 7 6 2v2l-5-1-25-9-37-9-29-6-2-1 1-8 8-20z" fill="#BA9764"/>
<path transform="translate(687,738)" d="m0 0 2 2-2 5 1 2-11 8-19 14-9 7-4-1-11-16v-2h2v-3h-2l-4-5 1-3 3 1v3h2l2 4 3 3v2l4 1v2h6l15-11 12-8 5-4z" fill="#A8C63A"/>
<path transform="translate(368,76)" d="m0 0 2 4 10 31 5 17v2l3-1 31-1-1 3-4 3-3 1-18 1-3 1h-9l-2-3-4-15-12-38 1-2-2-1 3-1 2 1z" fill="#AAC531"/>
<path transform="translate(559,338)" d="m0 0 6 1 6 7v5l-3 1h-13l-15 1 1 1 12 1 1 7 6 10v2h-5l-6-4-6-10-1-3-2-1 2 7 1 7-4-1-4-2-1-2-8-2 5-5 6-4 4-5 9-5z" fill="#2DA8E0"/>
<path transform="translate(312,492)" d="m0 0 4 1 9 8 3 12-1 5-11 2h-9l-7-3-1-7 4-8z" fill="#FAFCFC"/>
<path transform="translate(449,489)" d="m0 0h11v129l7-4 8-6h2l-1 5-5 4-4 4-7 4-4-1v-132l-8-1z" fill="#C3A25B"/>
<path transform="translate(496,756)" d="m0 0h7l-4 2-12 2h-7l1 7h5v62h-15v-1h13l-1-7h-2l-2 1h-54l1-4v3l51-1 1-1-1-59 2-2z" fill="#9DC15C"/>
<path transform="translate(252,128)" d="m0 0 4 1 6 9 8 11 3 4h-3v-2h-2v-2h-2v-2h-2l-6-10h-5l-5 5-12 5-1 2-7 3h-3l-2 6v3l3 7 6 10 1 3 2 1 5 9 3 5 1 3-2 2-6-7-8-12-11-15-5-7 1-3 15-10 12-9 10-8z" fill="#1290CB"/>
<path transform="translate(481,171)" d="m0 0h27v9l-8 1 1 26-2 2h-8l-1-1-1-11v-16l-9-1v-7z" fill="#FAFCFC"/>
<path transform="translate(380,492)" d="m0 0 4 1 7 10 5 11-2 4-8 3-13-2-6-2 1-9 1-7 9-7z" fill="#F8FCFC"/>
<path transform="translate(279,270)" d="m0 0 10 1 25 6 36 12 22 9-3 3-3-1h-9l-19-8-36-11-17-4-2-4-4 1-1 3h-2l2-6z" fill="#CBA862"/>
<path transform="translate(344,515)" d="m0 0 9 1 8 3-1 9-6 11-5 5h-5l-6-7-5-13 1-5z" fill="#F8FCFC"/>
<path transform="translate(502,356)" d="m0 0h2l-1 8h4l2-5h2l3 6v2l9-3 3-2 9 3 1 2 7 3 1-2 3 5-1 4-10 8-4 3v-3h-3v-3h-2l-2-3v-3l-3-1 1-4 2-1v3l4-1 1-4h-6l-8 4-3 2v2l3 3-1 3-4-3v-11l-5 3-10-3-4-11h3l3 4 1-2h3z" fill="#1A9AD5"/>
<path transform="translate(233,392)" d="m0 0 3 1-1 7-15 41-12 31-11 29-1 2h-2v-7l6-16 3-9 2-9 10-27 7-18 3-1 3-11z" fill="#D18E45"/>
<path transform="translate(451,427)" d="m0 0 5 1 2 3 21 1 8 1-1 4-3 1-25 2-5 3-5-1-2-2-6-1-22-1-2-2 1-4 28-2 2-2z" fill="#FDFDFD"/>
<path transform="translate(533,297)" d="m0 0 7 1-1 4-29 14-23 13-22 14-9 6-3-1 4-5 5-5 15-10 7-4 4-4 5-3 7-3 4-3 10-4 6-2 1-3 9-1v-2z" fill="#CF9F61"/>
<path transform="translate(344,434)" d="m0 0 6 1 8 11 3 7-1 5-9 4h-7l-10-4-1-4 5-13z" fill="#F9FCFC"/>
<path transform="translate(259,525)" d="m0 0 15 1 21 8 28 12 16 8 15 8v2l4 4-10-2-16-8-23-11-23-9v-3l-6-1-18-7z" fill="#CB914E"/>
<path transform="translate(596,503)" d="m0 0 9 1 2-1 4 2 4 5-16 6-11 5h-5l2 4-15 9-4 1-2-2-2-7v-8l1-2 12 2 4 1 2-4 6-2h3l-2-1v-4l7 1h3l-4-2h2z" fill="#D6F3F8"/>
<path transform="translate(620,724)" d="m0 0 7 3 7 8 9 5 2-2 5 5-2 1 2 7h-2v2l7-3 5-5 12-9 3-1v5l-3 3-3 5-4 3v2l-14 10-4-1-27-36z" fill="#118FCA"/>
<path transform="translate(403,231)" d="m0 0h8l5 3 2 2v6l-4 2-1 6h3l2 5 4 1v-24l5 1 1 5v19l-1 1-12 1-5-5-2-4v-3h-2l1 4v8h-5l-1-2v-24z" fill="#EFFCFC"/>
<path transform="translate(734,205)" d="m0 0h6v2l-6 1-13 10-15 11-16 12-5-1-9-11-8-9v-2h2l-1-4h5l15 15 11-8h2v2l11-4 11-8z" fill="#9BBF58"/>
<path transform="translate(377,458)" d="m0 0h12l5 3-1 8-6 11-5 6-6-4-7-6-2-9 1-7z" fill="#F7FCFC"/>
<path transform="translate(304,459)" d="m0 0h17l7 3-2 11-7 8-4 4-5-2-8-10-3-8 1-4z" fill="#F9FCFC"/>
<path transform="translate(258,133)" d="m0 0 6 1 4 4 5 2 10 13 8 12 4-1 9-5 10-5 4 1-5 2-2 3h-2l-1 5-6 4-4 4-4 2-4-1-6-4-11-16-10-13z" fill="#A8C536"/>
<path transform="translate(457,710)" d="m0 0h10l4 4 2 5v8l-3 9-5 4-6-1-4-4-2-5v-13l3-6z" fill="#F6FCFC"/>
<path transform="translate(713,505)" d="m0 0 2 4-4 3-41 9-19 5h-14l-2 2-5 1v-2l-2-1 31-10 30-7 22-3z" fill="#BB9763"/>
<path transform="translate(538,664)" d="m0 0h14l4 4v6l-6-1-3-2-5-1 1 3 12 6 2 3v6l-2 4-4 2h-11l-5-4-1-7 1-2 4 2 5 4 5-1v-2l-12-5-2-1-1-7 3-6z" fill="#F7FCFC"/>
<path transform="translate(439,709)" d="m0 0 6 1 4 5 1 2v11l-3 8-3 3h-7l-5-5-2-5v-8l4-9z" fill="#EBFAFB"/>
<path transform="translate(511,664)" d="m0 0h19v7l-2 1-10-1h-2l1 4 7-1 4 2 1 4-1 1-12 1-1 5h11l4-1 1 4-2 3-6 1h-10l-4-2-1-2v-21z" fill="#E6F9FB"/>
<path transform="translate(139,521)" d="m0 0h6l-3 3-8 1v2l-11 4-21 7-4 3h-3l1 7 3 8-1 2h2v2l4 1-2 6 4 13 5 1 4-4 7-1 8 2-3 3-18 6h-3l-15-44-1-4 5-4 10-4 10-3 13-5z" fill="#1998D2"/>
<path transform="translate(420,418)" d="m0 0h64l2 1-1 5-2 1h-61l-5-1v-5z" fill="#FDFDFC"/>
<path transform="translate(555,88)" d="m0 0 11 1 23 8 2 1-1 8-13 38-2 1-1-10 2-5v-4h2v-8l4-10 4 2 1-4h-2l-1-2-9-2-4-3-17-4-1-3z" fill="#1190CB"/>
<path transform="translate(353,664)" d="m0 0h18l1 1v6l-2 1-11-1v3h12l1 6-1 2h-12v4l11 1 3 1v5l-1 1h-18l-2-2v-27z" fill="#EBFAFB"/>
<path transform="translate(551,519)" d="m0 0v3l-2 4-2 2 2 2v5l4 2 2-3h6l3 3v2h2l1 2 3-1-2 4h-2v2l-3 1-1 5-2 1-3 1h-6l-9 3-1-4 3-6v-2l-1-8v-7l1-5v-5z" fill="#1490CA"/>
<path transform="translate(324,664)" d="m0 0h13l7 3 2 5-1 6-6-2-1-4-7-1-2 9h5l-3 2-1 6 9-1v-2h2v-3h3l-1-3h3v10l-5 4-3 1h-13l-2-2v-26z" fill="#F6FCFC"/>
<path transform="translate(354,563)" d="m0 0 5 2 17 9 16 10 15 10 22 15 12 9v1h-5l-16-12-8-5-4-1-20-14-6-1-27-16-6-3 4-1h3l-3-2z" fill="#DAA159"/>
<path transform="translate(445,664)" d="m0 0h17l1 1v6h-13l-1 4h14v7h-14v5h14l1 6-2 1h-10l-8-1-1-2-1-9v-14l1-3z" fill="#F5FBFB"/>
<path transform="translate(741,569)" d="m0 0 12 3 37 12v1l-9-1-9-3-8-3-7-2-9-2v2h-2v2l9 2 30 10 1 2-11-3-28-9-4 1-8 16-3 5-1-3-1-5-4 4-1 3v10l3 4-4-2-4-3v-7l11-17 7-14z" fill="#9EC455"/>
<path transform="translate(437,444)" d="m0 0h17l31 1v5l-1 1-8 1h-25l-34-1v-5l3-1z" fill="#FDFDFD"/>
<path transform="translate(170,201)" d="m0 0h5l30 22 8 6 4-2 7-8 2 2-2 5-5 5v6l-3 2v-3h-5l-9-7-8-5-6-3-12-9-5-4-3-3 3-1zm58 14 2 1-2 3-3-1z" fill="#AAC739"/>
<path transform="translate(608,505)" d="m0 0 8 1 3 4-11 5-8 3-14 8-12 10-2 1-1 5-1-2h-2l-1 2-1-3h-2l-4-4h-5l-3 3-3-3-2-6v-3h2l3-9 3-3v5l4 1 3 3 2 4 2 7 6-2 11-7v-4l10-3 13-6 7-2-2-3z" fill="#1382BD"/>
<path transform="translate(737,194)" d="m0 0h3l11 16 10 13 2 3-1 3-3-3-4-1-1-7-5-5-5-3-2-5-8 1-13 8-10 7-9 2 1-4 14-11 18-13z" fill="#ACC731"/>
<path transform="translate(358,392)" d="m0 0h5l-1 2-7 2-3 7-7 3-22 3-19 1-2-4 12-1 6-2 3-3h6v-2h-7v-1z" fill="#FBFDFD"/>
<path transform="translate(173,601)" d="m0 0 5 2 1-2v3h2l1 4-5 5-5 4-9 6-4 4-7 4-11 9-13 3 2-5 9-7 13-9 16-12 5-2z" fill="#ABC732"/>
<path transform="translate(570,354)" d="m0 0h17l10 19 3 6v2l-17-2-5-8-8-16z" fill="#147EB7"/>
<path transform="translate(816,421)" d="m0 0h7v52l-4 1-52-1v-1l14-1 3-2 19-1 1-2h5 2l3-3h1l3-21 1-3h2l-1-11-4-4z" fill="#1190CB"/>
<path transform="translate(414,665)" d="m0 0h6v10h9l1-2v-8h5l2 6v16l-1 5-4 1-2-1v-9l-2-1h-7l-1 10-6 1-1-1v-26z" fill="#E5F8FA"/>
<path transform="translate(353,381)" d="m0 0 5 1 7 2v2l4 1-3 2-13 2-33 3h-19l-1-3 2-1h6v-2l4-1h8l11-2 17-1z" fill="#FCFDFD"/>
<path transform="translate(586,382)" d="m0 0 16 2 6 9 7 15-1 3-11-4-8-3-8-16-2-5z" fill="#137DB7"/>
<path transform="translate(382,753)" d="m0 0 25 3 5 1v1l-16-1-13-1-3 3-1 6 2-2 2-3h2l-2 12-14 43-2 6-4-1 2-1 5-17 3-10-1-3-6 13-3 9-3 1-10-3-2-2 6 1 7 1 4-13 6-14 8-27z" fill="#A1BF37"/>
<path transform="translate(261,231)" d="m0 0 5 2 2 5 5 2 4 7 2 1v-17l5 1 1 1v22l-1 2-4-1-10-9-3-4v-2h-2l1 3-1 14-1 1h-5v-14l1-13z" fill="#EAFAFB"/>
<path transform="translate(301,230)" d="m0 0h7l5 3 1 5-3 1-5-2h-9v12l5 5 6-1 2-4-3-2 1-3 2-1h6v10l-7 6-3 1h-7l-6-4-3-5-1-3v-8l3-5 5-4z" fill="#F0FAFB"/>
<path transform="translate(630,230)" d="m0 0 10 1 3 2 1 7-6-2-1-1h-8l-3 2v10l4 4 5 1 3-2 1-4h-2l-1-4 1-1h7l1 1v9l-4 5-5 2h-7l-7-4-3-5v-12l7-8z" fill="#E6F9FA"/>
<path transform="translate(242,231)" d="m0 0h9l5 2v4l-10-1 1 17 4-1 3-2-7-4v-5l2-2h7l1 1v17l-5 3-10-1-3-4v-15l1-8z" fill="#F1FBFB"/>
<path transform="translate(512,475)" d="m0 0 9 2 18 6 22 6 1-7 5-5-1 8-1 5 30 10 10 3 1 2-10-2v4l9 3v1l-10-1-6-1-1 3 5 2-3 1-4-2-2-4v-3l-16-4v-2l9-2 6 2v-2l-9-2-32-10-21-6-9-4z" fill="#E8F9FB"/>
<path transform="translate(800,295)" d="m0 0 3 1 12 36 1 14 1 3h-2v-2l-3-1-7-21v-6l-2-1v-3h-2l-2-9-3-2-7 2h-6v-2l2-1 1-3z" fill="#AAC632"/>
<path transform="translate(474,230)" d="m0 0 9 1 3 2 1 5-2 1-5-2h-8l-3 1v10l1 4 4 2h5l3-3-1-7 7-1 1 2v7l-5 6-9 3-6-2-5-5-2-7v-6l4-6 4-4z" fill="#F4FBFB"/>
<path transform="translate(417,64)" d="m0 0h1l1 60h3v-2l2-1 1-41h1v54l-9 2-30 3h-8l-7-23-4-15 1-4 8 24 4 15h9l3-1 18-1 5-1 1-3 2-2-9 1h-14v-1l21-2z" fill="#9FC554"/>
<path transform="translate(227,670)" d="m0 0 5 2v2l5 2v2l4 2v2h2v5l-6 8-4 3-3 1 1 2-6 4-1 3-3 3-3 5-1 3v3h-2l-2 6-5 7-3 1v2l-4-1-1-4 7-8 26-36 3-1-2-6-9-9 2-1z" fill="#A2BE32"/>
<path transform="translate(165,205)" d="m0 0 4 1 6 4 10 8 15 11 13 12 1 3h-3l-5-5v-2l-5-2-3-2v-2l-5-2-9-3-6-3-6-5-9-3-1 2-4 1v3h-2v3h-2l-2 5-3 2v-3l12-17z" fill="#1290CB"/>
<path transform="translate(358,463)" d="m0 0 5 1 3 8 1-5h1l2 9 11 9 4-3 3 4-2 4 9 12 4 9v7l-8 5h-6l1-3 8-3 1-3-7-14-6-8-5-3-2 3-5 2-1-10 3-5-4-1-8-7-5-4 1-3z" fill="#1573A8"/>
<path transform="translate(646,117)" d="m0 0 5 2 4 3v4l2 4 3 1-5 1-6-3-8 11-3 4h-4l-5 7-4 4h-2l-1 2-1-5 9-13 13-18z" fill="#A9C637"/>
<path transform="translate(452,232)" d="m0 0 6 2 1 5v15l-2 3-5-1-12-13-2-1v17l-5-1v-24l3-1 9 6 6 7 2 1-1-6z" fill="#EAFAFB"/>
<path transform="translate(351,231)" d="m0 0 5 2v23l-1 2-5-2-7-8-4-4-3-1 1 15-1 1h-5l-1-25 5-1 5 4v2l4 2 6 6z" fill="#EAFAFB"/>
<path transform="translate(415,709)" d="m0 0h8l4 4 1 2v6l-6 9-2 2 7-1 1 1v6l-2 1h-14l-2-1v-7l8-7 2-3v-5l-2-1-2 4-4 1-1-1v-6z" fill="#F6FBFC"/>
<path transform="translate(483,90)" d="m0 0h1l1 38h22l10 1 2-5h2v5l-3 7-1 1h-6l-2-1-22-2-7-2v-7l2-8-2-13v-5z" fill="#ABC733"/>
<path transform="translate(590,354)" d="m0 0h5l-3 2 9 17 5 9 19 2 8 1 1 5-17-2h-8l12 23 1 2h-7l-3-9-8-16-2-3-9-2v-1l6-1-2-6-8-15-1-5z" fill="#E0F7FA"/>
<path transform="translate(485,70)" d="m0 0h1v57h9v1h-10l-1-2-1-31-2 4 1 12 1 7-2 7v7l22 3v1h-15l-8-1-2-2v-60h2l1 4-1 2h2l2 4z" fill="#9EC454"/>
<path transform="translate(488,353)" d="m0 0h28l3 4 2 9-7 1-3-6v-2l-2 1-2 6-4-2v-6l1-2h-2v3h-3l-1 3-3-3v-2l-2 1 3 6v4l6 1 4 1 2-2h3l-1 5h-3v4h-2l-1-2h-6l-10-16-1-5z" fill="#189AD6"/>
<path transform="translate(505,472)" d="m0 0 7 2-2 2 1 4 2 2 5 2 8 1-1 3-8 1v2l9 2 9 6 7 2h6 3l3 1v2l-15-1-9-4-5-2 2 6 12 3v2l4 1-8 1v-2l-3 1 4 6-5-2-3-2 1 5-6-6-2-6-6-12-7-10z" fill="#B9DEE6"/>
<path transform="translate(525,510)" d="m0 0 2 3 5 7 2 7 3 4h7v9l1 5 2 2-3 1-2 5 1 3 1 2-5 1-2-5v-3-2h-3l-1 2-2-12-7-28z" fill="#147DB5"/>
<path transform="translate(589,97)" d="m0 0 4 1 2 6h2l1 4-8 24h-2l-2 4-5 2-3 8v11 3l-4-3 1-10 12-36 4-13z" fill="#9DC254"/>
<path transform="translate(608,387)" d="m0 0h9l15 2 4 2 6 12v2h-3l-1 2-5-3-1-8-5-3-10-1v2h-2l5 12 3 2v-1h5l3 3v2l4-1 5 3v3l-9-1-10-4-9-16z" fill="#147EB7"/>
<path transform="translate(563,494)" d="m0 0h8l12 4v2h-6v-2l-3 2h-6v2l11 2 5 2 2 4v3h-6l-2-1-1 2v-2l-4-2-7-4-3-2v2l5 2v4l-1 2-10-1 2-12 2-2z" fill="#D4F2F7"/>
<path transform="translate(179,280)" d="m0 0 4 1 1 6-13 23-3 8-2 6h-6l-9-4 4-1 6 1 2-7 3-7-1-6 7-13v-3l3 1 1 3 5-6h-2z" fill="#9DC158"/>
<path transform="translate(531,508)" d="m0 0h4v2l8-1 2 1v3h6l1 1v5l-5 2-3-1 1 9-4 3-5-1-4-7-4-10v-3l5 2v-1z" fill="#F5FBFC"/>
<path transform="translate(601,231)" d="m0 0h13l2 4-1 2h-9v3h7l1 7-6-1-2-1v8h9v5l-1 1h-12l-3-4v-22z" fill="#E8F9FB"/>
<path transform="translate(156,627)" d="m0 0 3 1-12 9-10 8 2 6 7 9v3l-4-2 2 4 4 6v2l-3 1-14-18-6-10 1-5 4-2-2 4 13-4 12-10z" fill="#A9C639"/>
<path transform="translate(536,493)" d="m0 0 9 1 13 4v6l-3 6h-2v-2l-7 2-7-2v-2l-12-2-2-2v-5l6 1 8 4 13 1 2 1v-2l-5-1-1 1-9-1-5-2-2-5z" fill="#EBFAFB"/>
<path transform="translate(616,276)" d="m0 0h6l10 28 4 11 1 6h-2v-2l-4-2-7-11-4-9-2-14-1-3h-10l2-2z" fill="#F3FDFD"/>
<path transform="translate(513,230)" d="m0 0h10l4 3v5l-5-1-1-1-7 1-3 5 1 9 4 3 6-1 5-1 1 4-3 3-4 1h-9l-5-4-2-6v-11l4-6z" fill="#F6FCFC"/>
<path transform="translate(235,192)" d="m0 0 4 5 7 9 1 4-15 14-9 10-7 9h-3l-5-6-8-7-8-6 2-1 11 7 6 5 7 1 1-7 3-3h2l1-7h3l2-6 4-2v3h5l4-2v-8h-2l-6-9z" fill="#9EC455"/>
<path transform="translate(429,72)" d="m0 0h34l15 1v2l-29 1-13 2-4 3-2 13-1 9-1 4-1 16h-1v-43l1-7z" fill="#118CC7"/>
<path transform="translate(653,231)" d="m0 0h9l3 2v3l-9 1v3l7-1 2 2-1 5-7 1v7l7-1 1 1v5l-2 1h-9l-2-1-2-9-1-16 1-2z" fill="#E5F8FA"/>
<path transform="translate(561,664)" d="m0 0h21l1 5-8 2v16l-2 7-5-1-2-23-5 1-1-1v-5z" fill="#F1FAFB"/>
<path transform="translate(332,462)" d="m0 0 6 2 2 3-6 4v5l-3 4-1 6-2 2-1 3h-3v2l-5-1-5-3-2-4h-2l1-2 4 1 9-9 3-9 3 3z" fill="#1483BD"/>
<path transform="translate(736,206)" d="m0 0 5 2 3 5v2h2l4 7 8 10 1 2-7 2-4-1-4-6-2-7h-2l-2-5h-5l-5-2-4 1 5-5z" fill="#128FCA"/>
<path transform="translate(106,306)" d="m0 0 9 2 3 1v2l-5 1-5 4-1 7-5 10-2 6h-2l-3 14 5 1 2 4v-2l6 2-3 2-7-1-7-4 1-8 13-40z" fill="#118EC9"/>
<path transform="translate(762,238)" d="m0 0 4 5 2 5-22 16-21 14-5 2 2-5 5-2h3l1-3 3-2h4v-2l3-2h3v-2h2l1-5 6-9 2-7 1-2h5z" fill="#1290CB"/>
<path transform="translate(390,664)" d="m0 0h20l1 4-8 4-1 16-2 5-3 1-2-1v-23l-6 1-1-5z" fill="#F1FAFB"/>
<path transform="translate(364,231)" d="m0 0h7l5 2v4l-9 1-1 2h9l1 1v5l-7 1-1 8 7-3v6l-2 1h-10l-1-1-1-24z" fill="#E8F9FB"/>
<path transform="translate(530,664)" d="m0 0h1l2 11-1 7h2v-7l1 3 6 2 9 4-2 4-6-1-7-6-1 6-4 1h-4-8l-3-1-1-4 3-2 11-1-1-4-6-1-5 1v-5l7-1 6 1z" fill="#26A6E1"/>
<path transform="translate(385,231)" d="m0 0h7l4 2v4h-8l-1 2 2 2 1-1h5l1 7h-9l1 7 7-1 1 1v5h-13l-1-1-1-24 1-2z" fill="#EAFAFB"/>
<path transform="translate(635,142)" d="m0 0 2 3-14 20-6 10-2 4-10-4-2-3h9l2-4h-6l-2-3h5l9-12 2 3 5-5h2l2-4z" fill="#9FC557"/>
<path transform="translate(551,496)" d="m0 0 11 1-2 6-3 10h8l3-2v-2l-5-3v-2l5 2 9 6 9 1-1 2-4 1-2 4-16-4-1 7-7-4-1-4-2 2-1-3h-7l1-4-2-1 10-1v2l2-1 2-5 1-6-7-1z" fill="#A9DCEB"/>
<path transform="translate(327,504)" d="m0 0 3 1 1 2v10h6v2l-3 1 1 7 4 10 5 6h5l6-7 4-8 2-6h3l-1 8-6 11-8 7h-5l-7-7-7-14-1-7-2-1 1-4-1-2z" fill="#106FA6"/>
<path transform="translate(358,83)" d="m0 0 5 1-1 6-1-2-11 2-2 2-10 1-1 3-8 1-4 4h-5v8l-2 4h-2l-4-10 1-5 38-13z" fill="#138FC9"/>
<path transform="translate(289,319)" d="m0 0h2l2 55 1 14 3 9-5-3-3-4-1-21v-49z" fill="#0F6FA7"/>
<path transform="translate(431,425)" d="m0 0h51l-3 1-1 4-5 2h-15l-4-4-7 1-2 2-23 1 2-2 5-1z" fill="#D7A562"/>
<path transform="translate(76,413)" d="m0 0h55v2h3v2l-3 1-51 1-3 1z" fill="#A3BB26"/>
<path transform="translate(382,121)" d="m0 0 2 3 1 6 3-1 31-1-1 3-4 3-3 1-18 1-3 1h-9l-2-3-1-7h2l-1-4 3 1z" fill="#ABC731"/>
<path transform="translate(105,304)" d="m0 0 7 2-3 1h-3l-13 40-1 8 5 2-3 1-6-3-1-1v-12l2-10 1-3 1 1 3-8 2 2 2-7-1-3 3-1 4-8z" fill="#9CC058"/>
<path transform="translate(360,327)" d="m0 0h4l1 24v28l-22 2-25 2h-15l1-2 32-2 26-2z" fill="#3095C1"/>
<path transform="translate(482,664)" d="m0 0h12l5 3 2 3-6 1v5h-7l1 5 9 2-2 4-7 2v2l-4-1-4-4v-12l3-1 2 1 1-4 3-2-1-2h-6-3z" fill="#E7F9FB"/>
<path transform="translate(616,270)" d="m0 0h7l5 5 5 12-1 2-3-4 5 20-1 4-9-25-2-8-13 3-14-2 3-2z" fill="#D0A565"/>
<path transform="translate(747,262)" d="m0 0 2 1-8 7 7 2v-2h3v-2l3 1-16 12-6 4-4-2v-2h-3v13l-3-4-2-4v-6l16-10z" fill="#9FC458"/>
<path transform="translate(542,236)" d="m0 0h7l5 5 1 6-5 6-2 1h-6l-4-2-2-4 1-8z" fill="#1B9DD9"/>
<path transform="translate(168,578)" d="m0 0 2 3 8 15 6 10v5l-24 16v-3l10-7 6-4 5-5v-4l-7-2-1 6h-1l-2-7-6-10-2-4 1-3 3 5 2-3z" fill="#9EC354"/>
<path transform="translate(596,364)" d="m0 0 4 2 1 5h5l-2 1v2h3v2l6 1v2l6 2 1-4-3-4 2-6 5 2 6 12v3h2v2l-26-3-4-7-6-10z" fill="#167FB7"/>
<path transform="translate(568,379)" d="m0 0 12 1 10 20v3l-10-3-5-4-7-14z" fill="#1681BB"/>
<path transform="translate(325,733)" d="m0 0 4 3v9l-8 22-7 21v6l2 2-4-1-1-3v-8l2-2-1-3v-8l-1-3 2-6 2 1 2-5h3l3-8h2v-5h2l-1-9z" fill="#9DC156"/>
<path transform="translate(192,666)" d="m0 0 3 1-8 6h-2v2l-7 4-8 6-6 1-7-10-4-5v-2l4-1 4 3v2l5 1 1 3 6-1 2-3 5-3 12-2z" fill="#1290CB"/>
<path transform="translate(555,354)" d="m0 0 12 1 8 16 2 6-10-1-4-4-8-15z" fill="#127EB8"/>
<path transform="translate(72,413)" d="m0 0 5 1v3l2 1-1 1h1v6h-3v36l-2 10-2 3z" fill="#ADC830"/>
<path transform="translate(371,387)" d="m0 0 3 1-11 4-41 6-19 1-6-2v-1l11-2 45-4z" fill="#C9EFF6"/>
<path transform="translate(793,413)" d="m0 0h38v12l-3-1-3-5-53-1v-1l22-1z" fill="#A3BB26"/>
<path transform="translate(796,303)" d="m0 0 5 5v6l-2-3-2-4-37 12-15 5-7-1-6-12 1-2 6 10 13-1 8-4 9-3 5-1 7-1 10-3z" fill="#99BB5B"/>
<path transform="translate(348,510)" d="m0 0 4 1 6 2 3 2h5v2l20 4-1 2h-13l-8-1h-3v-3l-7-1-4-2h-6l-4 2-9-1 1-3v2l7-4z" fill="#137BB3"/>
<path transform="translate(485,710)" d="m0 0 5 1v24l-1 3-5-1-1-1v-16l-5 1-1-5z" fill="#F3FBFB"/>
<path transform="translate(287,322)" d="m0 0h1v58h-1v-7h-2l-1-16-1-4v-27l-1-3z" fill="#39B3EA"/>
<path transform="translate(796,306)" d="m0 0 3 2 8 25-1 3-4-1-2-1-1-10-2-7v-3h-11l-6 3h-9v-2z" fill="#118ECA"/>
<path transform="translate(386,586)" d="m0 0 4 2 11 7 8 6 5 1 14 10 8 6 9 1 1 6-1 1-7-1-28-21-15-10-10-6z" fill="#BD9663"/>
<path transform="translate(93,546)" d="m0 0h2l4 10-1 2h2v2l4 1-2 6 4 13 5 1 4-4 7-1 8 2-3 3-18 6h-3l-13-38z" fill="#1291CC"/>
<path transform="translate(510,475)" d="m0 0 9 3 16 5 10 3-4 3-4 2v-2h-11v2l-6 1-3-1v-2l8-2 1-2h-8l-6-3-3-3z" fill="#EEFBFC"/>
<path transform="translate(420,325)" d="m0 0 4 1 11 6 3 3 5 3 4 4 4 2 6-4 2 1-9 6-3 3-12-9-14-9z" fill="#D89C4D"/>
<path transform="translate(95,554)" d="m0 0 2 4 7 20-1 8-4-2v-2h-3v-2h-2l-4-12v-5h2v3h2v-4h-2v-7l2 1z" fill="#A2BC2F"/>
<path transform="translate(331,450)" d="m0 0 3 1v6l4 2 5 7-2 1-9-5-1 7-2 3-2-7v-3l-6-2-15-1 2-3-1-2h12l10 2z" fill="#137CB5"/>
<path transform="translate(140,659)" d="m0 0h2l4 4 1-2 8 11 9 12v2l6-1-1 2-8 1-3-3-4 1-8-10v-3h2l-8-13z" fill="#A0BA35"/>
<path transform="translate(80,536)" d="m0 0h9l-2 1 2 4h2l4 11v5l-2-1-1 6h2v4h-2v-3h-2l-1 2-7-21z" fill="#A9C636"/>
<path transform="translate(776,419)" d="m0 0h48l1 1v51l-2 4h-15l-41-1v-1h55v-52l-46-1z" fill="#89A06E"/>
<path transform="translate(502,356)" d="m0 0h2l-1 8h4l2-5h2l3 6v2l6-1-1 4-6 4v2l3 3-1 3-4-3v-11l-5 3-10-3-4-11h3l3 4 1-2h3z" fill="#45B8EA"/>
<path transform="translate(247,362)" d="m0 0h1l-1 7-10 25-4-2-3 11-5 13-1-4 10-28 8-20 3-1 1 1z" fill="#DD8C3B"/>
<path transform="translate(76,425)" d="m0 0h2l1 7 1 46-2 2h-6l1-9 2-10v-26z" fill="#A5BD28"/>
<path transform="translate(279,270)" d="m0 0 10 1 25 6 13 4-4 1-7 1-7-3h-12l-12-3-2-4-4 1-1 3h-2l2-6z" fill="#B99664"/>
<path transform="translate(326,142)" d="m0 0 2 3 2 7v5l-8 5-13 5-11 8-2 2h-5l-4-5 4 2 4-1 6-2 2-4 4-4h2v-3l3-2 8-1 1-3 3-2 2-6z" fill="#9ABE58"/>
<path transform="translate(583,231)" d="m0 0 5 2v21h8l2 4-1 1h-14l-1-2v-25z" fill="#E4F8FA"/>
<path transform="translate(593,388)" d="m0 0 7 1 4 5 3 6-1 5-7 1-5-3-4-8v-6z" fill="#1290CB"/>
<path transform="translate(382,753)" d="m0 0 25 3 5 1v1l-16-1-13-1-3 3-3 18-4 10-5 11-3 6-2 7-3 1-10-3-2-2 6 1 7 1 4-13 6-14 8-27z" fill="#9BBD64"/>
<path transform="translate(145,219)" d="m0 0 1 2-1 2 2 1-4 7 2-1-2 5-5 2-3 7h-2v6l-3-1 1 4 2 3-4-2-6-5v-2h2l2-4 10-13z" fill="#AAC735"/>
<path transform="translate(552,375)" d="m0 0 9 1 4 4 7 14v3l-10-3-4-3-4-10-2-3z" fill="#1584BF"/>
<path transform="translate(524,367)" d="m0 0 6 1-1 5h-4l-1-2-1 4 2 1 2 6h2v3h3v4l-5-1-9-4-3-5v-2l-3-1 1-3 6-4z" fill="#1594D0"/>
<path transform="translate(257,323)" d="m0 0 2 4-1 13-9 23-4 2-2-1 1-5 6-17z" fill="#C0A466"/>
<path transform="translate(117,525)" d="m0 0m-11 1 6 1 5-1v2l-7 3-9 3-9 4-4 4h-1v-5l-7-1-1-4 3-2 21-2z" fill="#A3BC2A"/>
<path transform="translate(217,655)" d="m0 0 1 2 4 2 8 8 2 1v2l4 2 7 7 4 6-1 5-10 10-6 8-1-4v-5l4-2 6-5 3-5 1-5h-2l-4-4v-2l-5-2-5-6-8-7-2-3z" fill="#9BBE58"/>
<path transform="translate(512,475)" d="m0 0 9 2 18 6 22 6 1-7 5-5-1 8-1 5 30 10 10 3 1 2-17-4-40-13-28-8-9-4z" fill="#2483B3"/>
<path transform="translate(780,528)" d="m0 0h7l13 4 8 4 5 3-3 10-4-5v-2l-10-3-4-2v-2h-4v-2l-5-2z" fill="#1592CC"/>
<path transform="translate(537,70)" d="m0 0 3 2v3l12 3 3 3 4 2 7 1-3 2-8-1-3-2-9-2-2-1-2 11h-2v-3l-4 1 1-14z" fill="#AAC532"/>
<path transform="translate(304,494)" d="m0 0h3v5l-5 6-2 5 1 7 6 2h9l11-2 2-2-1 4v3l-7 1h-15l-7-2-3-2v-8l3-9z" fill="#1474AA"/>
<path transform="translate(445,713)" d="m0 0h3l2 4v11l-3 8-3 3h-7l-4-4v-2l10-1v-17z" fill="#F8FCFC"/>
<path transform="translate(227,670)" d="m0 0 5 2v2l5 2v2l4 2v2h2v5l-6 8-4 3-5-1 6-9h2l-2-6-9-9 2-1z" fill="#AAC531"/>
<path transform="translate(331,670)" d="m0 0 7 1 2 5 5 2-1 4h-3v3h-2v2l-9 1v-6l1-1-2-1 1-9z" fill="#EAFAFB"/>
<path transform="translate(338,504)" d="m0 0 4 1 4 2h5l2-1v2l11-2v8l-4 1-3-2-7-1-2-1-9 2-5 3h-2l-1-2v-6l4-1h4z" fill="#1696D2"/>
<path transform="translate(565,231)" d="m0 0 5 2v21h8l2 2v3h-10l-5-2-1-1v-24z" fill="#E8F9FB"/>
<path transform="translate(82,466)" d="m0 0 1 2h6l3-2 9 1 16 3v1l-5 1h10l1 2h-30l-6-1v-2h-6z" fill="#1190CB"/>
<path transform="translate(310,243)" d="m0 0h6v10l-7 6-3 1h-7l-6-4 3-7 6 5 6-1 2-4-3-2 1-3z" fill="#EAF8F9"/>
<path transform="translate(800,295)" d="m0 0 3 1v9l2 9 2 1 1 8-2-1-1-3-2-1v-3h-2l-2-9-3-2-7 2h-6v-2l2-1 1-3z" fill="#A5BE29"/>
<path transform="translate(222,745)" d="m0 0 11 7v2l5 2v2l4 2 6 4v2l3 1-3 2-5-1-20-15-2-5z" fill="#A2BD2E"/>
<path transform="translate(233,392)" d="m0 0 3 1-1 7-13 35-4 1 1-7 4-10 7-19z" fill="#DD8D3A"/>
<path transform="translate(348,401)" d="m0 0h5l-4 4-17 3-28 2-2-4 35-3z" fill="#1D9FDA"/>
<path transform="translate(559,338)" d="m0 0 6 1 6 7v5l-3 1-2-1 1-3 1-1-2-1v2l-7 1h-12l1-4z" fill="#1797D3"/>
<path transform="translate(498,669)" d="m0 0 4 1v9l1 1v9l-2 1-5-3v-4l-7-1-2-4 1-2h7l-1-6z" fill="#EFFBFC"/>
<path transform="translate(544,535)" d="m0 0 5 1 3 7 2 4 1 3-4 4-9 3-1-4 3-6v-2l-1-8z" fill="#F8FCFC"/>
<path transform="translate(531,239)" d="m0 0 6 1v8l1 4 13 3 2 1v2l-5 2h-8l-7-6-3-9z" fill="#EBFAFB"/>
<path transform="translate(631,239)" d="m0 0 5 2 2 2-1 5h2l-1 5-3 2-5-1-5-5v-9z" fill="#189CD9"/>
<path transform="translate(544,355)" d="m0 0h9l1 7 6 10v2h-5l-6-4-6-10z" fill="#1584BF"/>
<path transform="translate(531,508)" d="m0 0h4v2l8-1 2 1v3h6l1 1v5l-5 2-3-1-1 3-3-3-6-1 1-5-4-5z" fill="#D9F1F5"/>
<path transform="translate(279,231)" d="m0 0 5 1 1 1v22l-1 2-4-1-5-4v-2h2v-2h2z" fill="#F6FCFC"/>
<path transform="translate(476,239)" d="m0 0 6 1 1 4h-2l2 7-4 4h-5l-5-5-1-6 6-1z" fill="#38B2E9"/>
<path transform="translate(319,232)" d="m0 0h5l2 2v23l-2 2-4-1z" fill="#C9EFF6"/>
<path transform="translate(452,232)" d="m0 0 6 2 1 5v15l-2 3-5-1-5-6 1-2 3 2v-2h2l-1-7z" fill="#F4FCFC"/>
<path transform="translate(587,131)" d="m0 0 2 1-2 9-4 16h-2v2l-4-2v-11l4-9 5-2z" fill="#ACC731"/>
<path transform="translate(525,362)" d="m0 0 9 2 2 3 7 3 1-2 2 5-5 4-7-1-2-3 1-2-3-1v-2h-6l-4 1 1-4z" fill="#3AB3E9"/>
<path transform="translate(511,353)" d="m0 0h5l3 4 2 9-7 1-3-6v-2l-2 1-2 6-4-2v-3l2-2v-4l-2-1z" fill="#1EA1DC"/>
<path transform="translate(582,108)" d="m0 0 4 4-2 8-2 9-5 15-2 1-1-10 2-5v-4h2v-8z" fill="#1190CB"/>
<path transform="translate(343,482)" d="m0 0h8l3 3v6l-3 4-6 1-5-5 1-7z" fill="#168EC8"/>
<path transform="translate(299,236)" d="m0 0h7l2 2-5 1 1 10h7l-2 4-3 2-6-1-4-5v-10z" fill="#199EDA"/>
<path transform="translate(339,286)" d="m0 0 9 2 24 10-3 3-3-1h-9l-5-5-15-5v-3z" fill="#BF9863"/>
<path transform="translate(151,625)" d="m0 0 5 1-1 3-9 7-5 4-13 3 2-5 6-5 7-2z" fill="#A4BE2B"/>
<path transform="translate(123,473)" d="m0 0h17l2 3 4 36v8l-13 3h-3l1-3 9-2 2-5v-14l-3-23-1-1-15-1z" fill="#96B660"/>
<path transform="translate(646,117)" d="m0 0 5 2 4 3v4l2 4 3 1-5 1-6-3-2 1-1-4-5 4-1 2h-3v2h-2l2-5z" fill="#A2BD38"/>
<path transform="translate(479,327)" d="m0 0 2 1v3l-5 5-15 10-5 3-3-1 4-5 5-5 15-10z" fill="#CE9D5B"/>
<path transform="translate(139,244)" d="m0 0 8 8 7 4v2l4 2 10 6 8 6-1 2-5-2-4-2-6-4-18-13-5-4-1-3z" fill="#1394CF"/>
<path transform="translate(800,531)" d="m0 0 5 2 1 1 7 1 2 2-1 7-11 33-4 11h-6l-3-3 6 1 2-2 8-24 5-17 1-4-12-6z" fill="#95B55F"/>
<path transform="translate(328,485)" d="m0 0 2 1v10l5 5 3 2 1 3 3 3-11-1-1-3h-2l-2 2-1-10-4-4h3v-2h3z" fill="#147FB9"/>
<path transform="translate(413,666)" d="m0 0h6v10l-2 1-1 3h3v12l-5 1-1-1z" fill="#FAFDFC"/>
<path transform="translate(401,233)" d="m0 0h1l1 5 5-2 4 1-2 4-2 6h-2l1 4v8h-5l-1-2z" fill="#C9EFF6"/>
<path transform="translate(570,354)" d="m0 0h17l3 6-1 7-3 1-5-2-4-2v-7l-4-1z" fill="#128EC9"/>
<path transform="translate(601,231)" d="m0 0h13l2 4-1 2h-12v10l-3 9-1-1v-22z" fill="#F7FCFC"/>
<path transform="translate(737,194)" d="m0 0h3l11 16 10 13 2 3-1 3-3-3-4-1-1-7-5-5-5-3-2-5-3-1 2-2-3-5-6 1 3-3z" fill="#A1BE36"/>
<path transform="translate(353,664)" d="m0 0h18l1 1v6l-2 1-11-1-2 4-2-4h-2l-1-6z" fill="#F1FAFB"/>
<path transform="translate(800,354)" d="m0 0 5 2 4 1-29 10-12 4h-4l2-4 7-3 9-1 4-2 5-2 5 1v-2z" fill="#118CC7"/>
<path transform="translate(538,664)" d="m0 0h14l4 4v6l-6-1-3-2-5-1v3l-3-1v-2h-3l1-5z" fill="#F4FBFB"/>
<path transform="translate(390,457)" d="m0 0h9v7l-5 13-6 8-3-1 1-4 6-11 1-8z" fill="#106EA4"/>
<path transform="translate(535,668)" d="m0 0 1 2h3l1 2 12 5 3 3-1 2-8 1-11-5-1-7z" fill="#EBFAFB"/>
<path transform="translate(139,372)" d="m0 0 6 2 2 4-3 18-1 14-2 7-5 3h-55v-1l51-1 7-2 1-2 3-30 1-7z" fill="#8BA46E"/>
<path transform="translate(160,210)" d="m0 0 2 1-13 18-9 13-3 5v2l-4-1v-4h2l2-7 5-2 3-6h2l2-4 2-5v-6l6-2 2 1z" fill="#99BC5A"/>
<path transform="translate(534,538)" d="m0 0h5l3 3v4l5 1-4 4-1 6h2v2l-5 1-2-5v-3-2h-3l-1 2-1-11z" fill="#138FC8"/>
<path transform="translate(608,505)" d="m0 0 8 1 3 4-11 5-8 3-14 8-8 7-4-2 10-7-1-3 10-3 13-6 7-2-2-3z" fill="#198DC7"/>
<path transform="translate(368,97)" d="m0 0 2 3 7 21 4 15h9l3-1h16l-1 2-21 2h-8l-7-23-4-15z" fill="#96B660"/>
<path transform="translate(327,550)" d="m0 0 6 1 21 11v2l4 4-9-2v-2l-6-2-17-9z" fill="#DE8F3B"/>
<path transform="translate(516,235)" d="m0 0h5l3 2-1 4-6-2h-2l-1 6h-2l3 6 1-3 3-1 2-2 3 3-2 6-6 1-5-4-1-9 4-6z" fill="#1A9FDB"/>
<path transform="translate(630,230)" d="m0 0 10 1 3 2 1 7-6-2-1-1h-8l-3 2-2 8h-2l-1-8 6-7z" fill="#F5FCFC"/>
<path transform="translate(259,525)" d="m0 0 15 1 19 7-1 3 5 2-4 1-7-2v-2l-6-1-18-7z" fill="#DE8B37"/>
<path transform="translate(510,248)" d="m0 0 4 5 5 1 5-2 4 1-1 5-6 2h-9l-5-4 1-5z" fill="#E9F9FB"/>
<path transform="translate(353,687)" d="m0 0h19l1 1v5l-1 1h-18l-1-1z" fill="#F3FBFB"/>
<path transform="translate(258,232)" d="m0 0h1v25h-3v-17h-7l-1 1v5l7 3-5 5-4-1v-17l9 1 2 1z" fill="#0D659A"/>
<path transform="translate(422,232)" d="m0 0 5 1 1 5v19l-4 1-1-1z" fill="#EBFAFB"/>
<path transform="translate(247,688)" d="m0 0h1v5h-2l-1 4-4 2v2l-8 7-4 5-1 3h-2l-1 4-3 4h-2l2-5 8-12 8-10z" fill="#118CC7"/>
<path transform="translate(511,664)" d="m0 0h19v7l-2 1-10-1-4-1-4-2z" fill="#F6FCFC"/>
<path transform="translate(431,425)" d="m0 0h26l-4 2-7 3-1 1-23 1 2-2 5-1z" fill="#D2A35E"/>
<path transform="translate(664,198)" d="m0 0v3l-1 1v7l3-1 1-2 3 5 3 3h-4l1 4-3 1-9-7-1-1 1-7 5-5z" fill="#9CC057"/>
<path transform="translate(608,727)" d="m0 0 4 1 10 14v2l-5-1-3-2v-2l-4-2-6-5 2-4z" fill="#EDFBFC"/>
<path transform="translate(249,129)" d="m0 0 2 1-8 7-19 14-11 7 2 5v3l-6-7-2-2 7-4 11-6h2v-2l11-8 5-2v-2z" fill="#99BC5A"/>
<path transform="translate(371,99)" d="m0 0 4 5 2 4h2l3 10v6l-2 1v2l-3-1-5-17-1-3z" fill="#A4BD27"/>
<path transform="translate(520,499)" d="m0 0 4 3v2h9l6 2v2l4 1-8 1v-2l-3 1 4 6-5-2-3-2 1 5-6-6-2-6z" fill="#9CD7EB"/>
<path transform="translate(568,503)" d="m0 0h8l8 3 2 4v3h-6l-2-1-1 2v-2l-4-2-5-3z" fill="#EBFAFB"/>
<path transform="translate(771,481)" d="m0 0h59v1l-51 2-7 3h-3l1-5z" fill="#DDF6F9"/>
<path transform="translate(555,289)" d="m0 0h3v2l4 1-2 2-19 7-3-1h2v-2h-3v-2z" fill="#CD9B54"/>
<path transform="translate(651,242)" d="m0 0 4 1v12l9-2 1 1v5l-2 1h-9l-2-1-1-3z" fill="#E8F9FB"/>
<path transform="translate(525,575)" d="m0 0 3 1-7 7h-3v2l-7 4h-5v3l-6 3-5 2-1 2-4-1 10-7 19-12z" fill="#D4AA63"/>
<path transform="translate(364,454)" d="m0 0 6 1 7-1h9l9 2-4 3h-14l-9 1-1 4-3-4z" fill="#1585C0"/>
<path transform="translate(97,304)" d="m0 0 5 2-1 7-4 1 2 4-3 8-2-1-3 6h-1l1-9z" fill="#A3BD2E"/>
<path transform="translate(563,504)" d="m0 0 5 2 9 6 9 1-1 2-4 1-2 4-11-3-1-4-2-1 3-1v-2l-5-3z" fill="#A3D8E9"/>
<path transform="translate(669,214)" d="m0 0h5l8 8 1 6-9-1-6-7v-2h2z" fill="#A9C635"/>
<path transform="translate(324,739)" d="m0 0h2l-1 11h-2l-2 8-2 1-2-1-1 6-2-1 1-7 3-9h2l1-7z" fill="#A5C133"/>
<path transform="translate(529,686)" d="m0 0 2 4-2 3-6 1h-10l-4-2 1-4 16-1z" fill="#F3FBFB"/>
<path transform="translate(80,481)" d="m0 0h52l2 7v7l-8-10-8-2-38-1z" fill="#E2F7FA"/>
<path transform="translate(563,516)" d="m0 0 12 2 7 3v3l-7 1v-2l-6 1-7-1z" fill="#EDFBFC"/>
<path transform="translate(364,231)" d="m0 0h7l5 2v4l-9 1-3 3-1 17h-1l-1-24z" fill="#CBEFF6"/>
<path transform="translate(290,715)" d="m0 0 5 2-3 1-4 2-2 3v8l1 3-3 3-3-1-2 3h-4-3l10-13 6-9z" fill="#9BBD55"/>
<path transform="translate(581,480)" d="m0 0h3v13l3 2v-6h1l1 9 2 1-9-2-9-3 3-2 2-1v-9l2 3z" fill="#EDFBFC"/>
<path transform="translate(358,80)" d="m0 0 5 1 4 10 1 6-2-2-4-11-7 1-36 12-4 1v-2l12-5 10-3 20-7z" fill="#98B95C"/>
<path transform="translate(759,496)" d="m0 0 2 3v6l-1 2v11l12 2 9 4 3 3-9-2-17-5-1-1v-10z" fill="#A7CE77"/>
<path transform="translate(448,672)" d="m0 0 1 3h14v7h-14l-1 4-1-8z" fill="#E8F9FB"/>
<path transform="translate(526,489)" d="m0 0h11v2l5-1 9 6-6-1-9-1-3 1 1 3-5-2-3-2-5-1 3-2h2z" fill="#A6D9E9"/>
<path transform="translate(510,475)" d="m0 0 21 7-1 2h-2l-1 3-1-2h-8l-6-3-3-3z" fill="#E2F7FA"/>
<path transform="translate(358,83)" d="m0 0 5 1-1 6-1-2-11 2-2 2-6 1-4-1 1-3z" fill="#118FCA"/>
<path transform="translate(249,239)" d="m0 0h7l1 1v17h-1v-5l-5 1 3-3-7-4v-5z" fill="#35B0E7"/>
<path transform="translate(595,161)" d="m0 0 9 3 4 3 6 1-1 5-10-1-5-4-3-2v-2z" fill="#ADC830"/>
<path transform="translate(616,270)" d="m0 0h7l4 3-1 2-3-2-1 2-11-1 1 4-6 1-11-2 3-2z" fill="#C59D62"/>
<path transform="translate(637,243)" d="m0 0h7l1 1v9l-4 5h-5l1-5 2-5h-2l-1-4z" fill="#F8FCFC"/>
<path transform="translate(418,731)" d="m0 0 4 1 5-1 1 1v6l-2 1h-14v-3-2h3v-2z" fill="#E7F9FB"/>
<path transform="translate(483,90)" d="m0 0h1l1 38-4 1-1-4 2-8-2-13v-5z" fill="#ADC830"/>
<path transform="translate(482,664)" d="m0 0h12l5 3 2 3-6 1v4h-8v-5l3-2-1-2h-6-3z" fill="#E3F7FA"/>
<path transform="translate(227,702)" d="m0 0h3l-2 10-5 6-3 1-2-1-1 2v-4l4-6v-2h3l1-4z" fill="#ABC630"/>
<path transform="translate(536,493)" d="m0 0 9 1 3 3 1 4-1 1-9-1-5-2-2-5z" fill="#EAFAFB"/>
<path transform="translate(541,83)" d="m0 0 5 1-4 1-2 9-4 15-7 18-4 11h-2l3-10 9-25 5-18z" fill="#1181BB"/>
<path transform="translate(596,503)" d="m0 0 9 1 2-1 4 2 4 5-2 1h-7l-12-3 2-1z" fill="#E4F8FA"/>
<path transform="translate(448,687)" d="m0 0h15l1 6-2 1h-10l-8-1 4-1z" fill="#EEFAFB"/>
<path transform="translate(411,599)" d="m0 0 5 1 17 12 8 6v1h-5l-16-12-9-6z" fill="#D6A964"/>
<path transform="translate(362,91)" d="m0 0 4 1 5 16-1 4-2-3-5-1-1-4 1-6-1-1z" fill="#1190CB"/>
<path transform="translate(798,315)" d="m0 0 4 2 5 16-1 3-4-1-2-1-1-10-2-7z" fill="#1190CB"/>
<path transform="translate(242,364)" d="m0 0 1 4v4l-2 1v4l-3 4-4 10h2l-1 2-2-1-3 11-5 13-1-4 10-28z" fill="#B09B6A"/>
<path transform="translate(493,317)" d="m0 0h2v2h-2v2l2 1-1 3-14 8v-4-3l4-2 4-4z" fill="#CFA970"/>
<path transform="translate(599,354)" d="m0 0h16l2 4-4 1-1 4-4-2-8-3z" fill="#1A84BC"/>
<path transform="translate(245,241)" d="m0 0h1l1 12 9-1v6l-4 2-10-1v-5l3-1z" fill="#E6F9FB"/>
<path transform="translate(192,223)" d="m0 0 5 2 9 6 5 4 9 2-3 5-4 1-5-6-8-7-8-6z" fill="#9FC466"/>
<path transform="translate(383,760)" d="m0 0h2l-2 12-3 10-2 1-2-1 1-9 1-8 3-2z" fill="#A3BF30"/>
<path transform="translate(440,716)" d="m0 0 3 1 1 2v10l-1 3-3 1-2-1-1-10 2-5z" fill="#1C80B5"/>
<path transform="translate(571,355)" d="m0 0 6 2 1 7 9 3 2 1-1 2-6 1-1 3-3-3-7-13z" fill="#1580BA"/>
<path transform="translate(477,79)" d="m0 0h1v29l-1 11-3 1-1-1v-15l2-3 1 2z" fill="#1190CB"/>
<path transform="translate(484,772)" d="m0 0h1l-1 39-2 4-1-9v-19z" fill="#ADC830"/>
<path transform="translate(539,238)" d="m0 0 9 1 3 5-2 2-5 1-4 4-2-9v-3z" fill="#38B2E9"/>
<path transform="translate(217,655)" d="m0 0 1 2 4 2 8 8 2 1v2l4 2 7 7 2 4-4-1-4-4v-2l-5-2-5-6-8-7-2-3z" fill="#98BA60"/>
<path transform="translate(421,235)" d="m0 0h1v21l-4-1-2-5h-3l-1-4 1-2h5 2v-7z" fill="#1987BF"/>
<path transform="translate(474,230)" d="m0 0 9 1 3 2 1 5-2 1-5-2-7-1v-3l-4 2-5 4 2-4 4-4z" fill="#E3F7FA"/>
<path transform="translate(741,569)" d="m0 0 12 3 37 12v1l-9-1-9-3-8-3-7-2-10-2-7-3z" fill="#96B65E"/>
<path transform="translate(349,566)" d="m0 0 6 1 4 1 4 4 6 2 1 3 10 3 6 4-2 3-14-8-19-11z" fill="#B09268"/>
<path transform="translate(765,514)" d="m0 0h6l36 12 3 2-9-1-6-2h-8l1-2-17-6h-5z" fill="#A2BF36"/>
<path transform="translate(351,231)" d="m0 0 5 2v23h-1l-2-9h-2z" fill="#E2F7FA"/>
<path transform="translate(699,732)" d="m0 0h2l1 4-13 10-3-1 2-6-3-1 4-3 3 1 2-1v2z" fill="#A0BB35"/>
<path transform="translate(647,130)" d="m0 0 2 1-5 9h-2l-2 5-2 3h-2l-2 6h-2v2h-2l-2 5-5 7-2-1 8-12 9-12z" fill="#1783B9"/>
<path transform="translate(388,586)" d="m0 0 5 2 5 3h4l11 7-1 4-4-1-20-14z" fill="#DF8F3C"/>
<path transform="translate(772,369)" d="m0 0 2 1-7 3-8 2 1 10 1 3 1 15v13h-1l-2-22-1-1-1-7v-12l7-3z" fill="#93B261"/>
<path transform="translate(492,364)" d="m0 0 3 1 1 2 10 3 2-2h3l-1 5h-3v4h-2l-1-2h-6z" fill="#1897D3"/>
<path transform="translate(765,642)" d="m0 0 4 1-1 5-6 8-5 6v-3l9-12zm-10 20 1 2-9 12v-3zm-10 14 1 3-7 8-4 1-1-2 4-1z" fill="#97B85D"/>
<path transform="translate(117,525)" d="m0 0m-11 1 6 1 5-1v2l-7 3-9 3-9 4-4 4h-1v-5l11-5 5-1 1-4z" fill="#9CBF5F"/>
<path transform="translate(284,357)" d="m0 0h1v16h2l2-4v20l-7-6 1-2z" fill="#31ACE3"/>
<path transform="translate(286,348)" d="m0 0 2 2v30h-1v-7h-2l-1-24z" fill="#C9EFF6"/>
<path transform="translate(516,681)" d="m0 0h10l3 1v5l-3 1h-8l-3-1-1-4z" fill="#1590CA"/>
<path transform="translate(568,500)" d="m0 0 10 2 7 3 18 4 2 2-10-1-6-1-1 3 5 2-3 1-4-2-2-4v-3l-16-4z" fill="#4D98BA"/>
<path transform="translate(364,458)" d="m0 0 3 6v9l-2-1-3-8-9 1-2-2 2-3z" fill="#0F6CA3"/>
<path transform="translate(80,355)" d="m0 0h1l1 5 11 4 36 12 2 2-9-2-37-12-6-3z" fill="#9EC255"/>
<path transform="translate(93,546)" d="m0 0h2l4 10-1 2h2v2l4 1-2 6 2 5v5l-2-1-9-27z" fill="#118DC8"/>
<path transform="translate(816,421)" d="m0 0h7l-1 47h-1l-1-40-4-4z" fill="#1187C2"/>
<path transform="translate(573,284)" d="m0 0h2v2l3 1-10 4-7 1-3-1v-3l8-3z" fill="#D0954D"/>
<path transform="translate(570,180)" d="m0 0 3 4 3 7v5l-8-1-1-2 2-12z" fill="#1C9FDB"/>
<path transform="translate(461,716)" d="m0 0 4 1 1 5v7l-4 4-2-3v-13z" fill="#117AB3"/>
<path transform="translate(541,531)" d="m0 0h3v14h-2v-4l-5-2-5 1-1-5h2v2l3-3 1-2z" fill="#177CB3"/>
<path transform="translate(656,517)" d="m0 0 3 1-1 3-8 1-3 2-10 2-2 2-5 1v-2l-2-1z" fill="#D7A864"/>
<path transform="translate(358,392)" d="m0 0h5l-1 2-7 2-2 5-10 1 3-7-2-1z" fill="#EFFBFC"/>
<path transform="translate(732,309)" d="m0 0 3 3 4 7 16-1-1 3-9 3-7-1-6-12z" fill="#9ABC5E"/>
<path transform="translate(472,236)" d="m0 0h8l5 2 1 5h-4v-3h-6l-4 4h-4l1-6z" fill="#189BD8"/>
<path transform="translate(475,608)" d="m0 0h2l-1 5-5 4-2 3-10 1v-3l5-2z" fill="#D5A763"/>
<path transform="translate(570,526)" d="m0 0 9 1v2l-11 6-4-2v-5z" fill="#F3FBFB"/>
<path transform="translate(551,519)" d="m0 0v3l-2 4-2 2 2 2v5l3 1v2h-3v-2l-5-1-1-5 1-5v-5z" fill="#1A9FDB"/>
<path transform="translate(451,681)" d="m0 0h9l2 1v5l-1 1h-10l-2-1v-5z" fill="#1686BF"/>
<path transform="translate(580,518)" d="m0 0 6 2-3 1 2 4-6 3-9-1-6 1-2-2v-3h13v2l7-1v-3h-2z" fill="#C9EFF6"/>
<path transform="translate(563,494)" d="m0 0h8l12 4v2h-6v-2l-3 2h-8l-4-3z" fill="#EBFAFB"/>
<path transform="translate(307,454)" d="m0 0h12l10 2 1-2 1 3-3 1-9 1h-13l2-3z" fill="#188AC4"/>
<path transform="translate(348,401)" d="m0 0h5l-4 4-9 2h-15l2-2z" fill="#177DB3"/>
<path transform="translate(422,237)" d="m0 0h1l1 21-9 1-2-2-2-4 1-5 1 2h3l2 5 4 1z" fill="#CBEFF6"/>
<path transform="translate(483,665)" d="m0 0h6l2 4-4 2-1 3h-6v11h-1v-12l1-6z" fill="#F5FBFB"/>
<path transform="translate(552,363)" d="m0 0 4 2 4 7v2h-5l-6-4-1-4z" fill="#1684BE"/>
<path transform="translate(129,248)" d="m0 0h4l4 1 2 5 6 5-1 2-4-3v1h-5l-6-8z" fill="#A3BC2A"/>
<path transform="translate(583,231)" d="m0 0 4 1v17l-3-1-1 4-1-20z" fill="#FAFDFC"/>
<path transform="translate(363,182)" d="m0 0 3 1 3 13-8-1v-7z" fill="#1A9BD7"/>
<path transform="translate(293,534)" d="m0 0 12 4v2l-2 1v2l3 1-2 1-18-7v-1l10 1-5-2z" fill="#C0935A"/>
<path transform="translate(327,504)" d="m0 0 3 1 1 2v10h6v2l-5 1-1 4h-2v-4l-2-1 1-4-1-2z" fill="#0D679D"/>
<path transform="translate(343,380)" d="m0 0h14v1l-32 3h-24l-1-3 4 1h14z" fill="#C9EFF6"/>
<path transform="translate(263,315)" d="m0 0 2 4-6 18-2 1 1-9 1-2-2-1 2-7h2z" fill="#CC9F60"/>
<path transform="translate(267,236)" d="m0 0 1 2 5 2 4 7v3l-3 1-7-8v-2l-2-1z" fill="#E7F8FA"/>
<path transform="translate(541,79)" d="m0 0 4 2 9 2 8 3 10 4-3 1-8-3-18-4-2-1-1 5h-1l1-8z" fill="#9ABD5E"/>
<path transform="translate(415,709)" d="m0 0h8l2 2-5 1-4 7-4 1-1-1v-6z" fill="#EAF9FA"/>
<path transform="translate(544,535)" d="m0 0 5 1 3 7v3l-5 1-3-2-1-8z" fill="#EBF7F9"/>
<path transform="translate(443,489)" d="m0 0 5 1-1 16h-1l-1 18-2 1z" fill="#C5B35E"/>
<path transform="translate(561,351)" d="m0 0h10v11h-2l-2-7h-11l-1-3z" fill="#D0F1F7"/>
<path transform="translate(722,216)" d="m0 0 2 1-9 8-7 5h-2v2l-12 8-2-1 16-13z" fill="#118CC7"/>
<path transform="translate(521,674)" d="m0 0 6 1 2 5-1 1-11 1-1-2 1-5z" fill="#F6FCFC"/>
<path transform="translate(768,655)" d="m0 0 3 1-14 19-9 12v-3l9-13 6-8 2-7 3 1z" fill="#A0C753"/>
<path transform="translate(156,627)" d="m0 0 3 1-12 9-10 8 1 6-5-4-1-3 3-3 7-3z" fill="#96B65E"/>
<path transform="translate(94,346)" d="m0 0h1v7l5 1 2 4v-2l6 2-3 2-7-1-7-4 1-7z" fill="#128EC8"/>
<path transform="translate(218,718)" d="m0 0h5l-6 10-4 5 1 4-4-1v-6l5-8h2z" fill="#9CC057"/>
<path transform="translate(359,681)" d="m0 0 12 1v5l-1 1-11-1-1-5z" fill="#1582BC"/>
<path transform="translate(687,663)" d="m0 0 5 2 5 5-16 2 2-4z" fill="#E8F9FB"/>
<path transform="translate(566,346)" d="m0 0 3 1-1 3-1-1-1 2-10 1-12-1 2-4 3 1h17z" fill="#1582BB"/>
<path transform="translate(280,272)" d="m0 0 4 1v3h-2l-2 6-4 8h-1l-1-6 2-7h2l1-4z" fill="#D7A15B"/>
<path transform="translate(547,496)" d="m0 0 6 1 5 1v6l-3 6h-2l1-5-2-1h2v-2l-4-1-2-1z" fill="#CDF0F6"/>
<path transform="translate(589,367)" d="m0 0h1v9h-3v3l-5-1-2-4 5-5 3 1z" fill="#1390CB"/>
<path transform="translate(801,315)" d="m0 0h2v3l3 1 1 9 8 24v4l-3 1v-2h2l-8-22-5-16z" fill="#94B366"/>
<path transform="translate(280,324)" d="m0 0 2 1-4 4-1 2 4-1 1 8-2 4v-3l-5-2v-8-3z" fill="#189EDA"/>
<path transform="translate(629,236)" d="m0 0h8l7 5-1 2-7-1-5-2h-6z" fill="#1381BB"/>
<path transform="translate(258,133)" d="m0 0 5 1 7 11 5 6v3h-2l-10-13z" fill="#A4C140"/>
<path transform="translate(631,746)" d="m0 0 3 1v3h2l2 4 3 3v2l4 1-1 3-5-1-1-3h-4v-2h2v-3h-2l-4-5z" fill="#A3BB26"/>
<path transform="translate(552,342)" d="m0 0 10 1 2 4-3 1v-2l-4 2-10 1 1-4z" fill="#1897D3"/>
<path transform="translate(516,235)" d="m0 0h5l3 2-1 4-6-2h-2l-1 6h-2v3h-2v-6l4-6z" fill="#1A9BD7"/>
<path transform="translate(726,686)" d="m0 0 5 2 3 3v2h4l2 2 2-2-1 5-3 2-10-8-2-5z" fill="#A2BD30"/>
<path transform="translate(348,247)" d="m0 0h5l2 3v8l-5-2-5-5 1-3z" fill="#F8FCFC"/>
<path transform="translate(513,230)" d="m0 0h10l4 3v5l-5-1-5-2v-2h-3z" fill="#E2F7FA"/>
<path transform="translate(95,535)" d="m0 0 7 1-2 4-5 1-1 5h-2l-2-7z" fill="#1690CA"/>
<path transform="translate(329,399)" d="m0 0h2v3h12v1l-17 2h-11v-1l5-1 3-3z" fill="#E3F8FA"/>
<path transform="translate(740,571)" d="m0 0 6 1 1 3-4 1-2 4-1 4-3-1v-7z" fill="#ADC830"/>
<path transform="translate(518,492)" d="m0 0 8 1 9 6 7 2h6 3l3 1v2l-15-1-9-4-5-3-7-3z" fill="#3EA0CB"/>
<path transform="translate(505,472)" d="m0 0 7 2-2 2 1 4 4 4 1 8-4-4-5-9z" fill="#2795C8"/>
<path transform="translate(319,232)" d="m0 0h5l-1 7-1 8 3 1v6l-2-2-2 2-2-16z" fill="#EEFBFC"/>
<path transform="translate(728,593)" d="m0 0v3l-3 5v10l3 4-4-2-4-3v-7l6-9z" fill="#97B85D"/>
<path transform="translate(560,505)" d="m0 0h2l3 3 4 1-2 5-10-1 1-7z" fill="#EBFAFB"/>
<path transform="translate(367,501)" d="m0 0h2v7l-2 9-6-1 2-2v-10z" fill="#23A3DD"/>
<path transform="translate(182,607)" d="m0 0h2l-1 5-16 10-7 5v-3l10-7 6-4 5-5z" fill="#97B860"/>
<path transform="translate(332,459)" d="m0 0 6 1 5 6-2 1-9-5-1 7-2 3-2-7 3-1z" fill="#0E669C"/>
<path transform="translate(331,233)" d="m0 0 5 1 3 2v6l-3-1-1 2-4 1-1-10z" fill="#F8FCFC"/>
<path transform="translate(453,717)" d="m0 0 5 3 2-2v11l-5-1-2 2z" fill="#EBFAFB"/>
<path transform="translate(536,679)" d="m0 0 5 1 9 4-2 4-6-1-6-6z" fill="#1274AB"/>
<path transform="translate(328,485)" d="m0 0 2 1v10l2 4-6-2-5-5h3v-2h3z" fill="#1393CF"/>
<path transform="translate(249,348)" d="m0 0 1 2 1 8-2 5-4 2-2-1 1-5 4-10z" fill="#CDAE74"/>
<path transform="translate(150,214)" d="m0 0 2 1v5l-3 6-5 5-2 1 2-5 2-3-1-3z" fill="#A5BE28"/>
<path transform="translate(236,751)" d="m0 0 4 1 8 5 7-1v4 3l-5-1-5-4-5-3z" fill="#26A4DC"/>
<path transform="translate(586,513)" d="m0 0 2 1v2h6l-1 3-6 2-6-2v-4z" fill="#E9FAFB"/>
<path transform="translate(537,354)" d="m0 0 2 1v5h-2l-2 5-9-2 5-5z" fill="#1578AE"/>
<path transform="translate(441,251)" d="m0 0 3 1v2l3 1 1 3-12 3-2-2h4l1-7z" fill="#38B2E9"/>
<path transform="translate(450,670)" d="m0 0h10l1 5-3 1-9-1z" fill="#127CB5"/>
<path transform="translate(332,507)" d="m0 0 6 1 3 2v2l-7 4h-2l-1-2v-6z" fill="#E1F6F9"/>
<path transform="translate(803,299)" d="m0 0 2 4 4 11 1 5h-3v-4l-3-1-2-10z" fill="#A9C737"/>
<path transform="translate(601,231)" d="m0 0h13l2 4-1 2-9-1-2-4z" fill="#E5F8FA"/>
<path transform="translate(432,679)" d="m0 0 3 1v12l-3 1-2-1v-12z" fill="#F8FCFC"/>
<path transform="translate(796,303)" d="m0 0 5 5v6l-2-3-2-4-15 5h-2l1-3 10-3z" fill="#95B55F"/>
<path transform="translate(296,249)" d="m0 0 7 6-1 3 4 2h-7l-6-4z" fill="#E7F9FB"/>
<path transform="translate(397,234)" d="m0 0h3 1l-1 18h-2l-2-5z" fill="#1189C4"/>
<path transform="translate(686,229)" d="m0 0h7v7h-9l-1-3z" fill="#ACC732"/>
<path transform="translate(665,198)" d="m0 0 4 1 1 5-4 2v2l-4 3v-9z" fill="#ABC731"/>
<path transform="translate(172,688)" d="m0 0 1 2h2l-1 3-7 4-4-1 1-4v-2z" fill="#A2BE31"/>
<path transform="translate(486,681)" d="m0 0 10 1 2 2-2 3-5 1-5-2z" fill="#1275AC"/>
<path transform="translate(227,670)" d="m0 0 5 2v2h2l3 5-2 4-10-10 2-1z" fill="#A3BB26"/>
<path transform="translate(744,579)" d="m0 0 9 2 4 2-6 2-10 1 2-6z" fill="#E9FAFB"/>
<path transform="translate(361,506)" d="m0 0h3v8l-4 1-5-3v-3z" fill="#E9F8FA"/>
<path transform="translate(762,417)" d="m0 0 3 1h47v1l-36 1-11 1-3-1z" fill="#A3CB6F"/>
<path transform="translate(807,337)" d="m0 0 2 2 2 8-2 4v-2l-4-1-1-7 2-3z" fill="#118EC9"/>
<path transform="translate(265,241)" d="m0 0h2l7 9 6 5-3 1-7-6-2 3h-2z" fill="#197EB2"/>
<path transform="translate(682,223)" d="m0 0 5 5-2 4-2 3-3-1-5-7h7z" fill="#9CC056"/>
<path transform="translate(160,210)" d="m0 0 2 1-10 14-2-1 1-10 6-2 2 1z" fill="#9BC057"/>
<path transform="translate(305,785)" d="m0 0 1 4-1 10 20 7-3 1-18-6-3-2 1-5z" fill="#A0C355"/>
<path transform="translate(653,732)" d="m0 0 3 1 2 5 2 1-1 3-3 1-3-2h-3l1-7h2z" fill="#1190CB"/>
<path transform="translate(518,366)" d="m0 0h2l-1 4-6 4v2l3 3-1 3-4-3v-8l3-4z" fill="#C9EFF6"/>
<path transform="translate(561,356)" d="m0 0 3 1 5 8-1 5-3-1-2-5h-2z" fill="#1497D3"/>
<path transform="translate(457,340)" d="m0 0 2 1-9 6-3 3-8-6 2-1 1-2 2 1v2h2l1-2 4 2z" fill="#DBC192"/>
<path transform="translate(390,240)" d="m0 0h5l1 7h-9v-6z" fill="#CAEFF6"/>
<path transform="translate(582,108)" d="m0 0 4 4-2 8v3h-2l-1 2-2-10z" fill="#1394D0"/>
<path transform="translate(828,428)" d="m0 0 3 2v27h-1l-1-11-1-2z" fill="#A3BB26"/>
<path transform="translate(240,242)" d="m0 0 4 3h1v8l-2 1v4l-3-1z" fill="#FDFDFD"/>
<path transform="translate(534,549)" d="m0 0 5 1v5h-4v2l2 1-4 4h-1v-10z" fill="#1274AB"/>
<path transform="translate(586,520)" d="m0 0h4l1 3-11 8-3 2-3-2 10-7-1-3z" fill="#33AFE7"/>
<path transform="translate(543,504)" d="m0 0h9l2 1-1 3-7 2-6-3z" fill="#EEFBFC"/>
<path transform="translate(370,482)" d="m0 0 6 4 1 3-2 3-5 2-1-10z" fill="#EAF8FA"/>
<path transform="translate(303,239)" d="m0 0 5 1 3 3-3 1v3l2 2-6 1-2-7z" fill="#39B3EA"/>
<path transform="translate(466,180)" d="m0 0 9 1 2 1-1 3-3-1v2h-7l-2-4z" fill="#1988C2"/>
<path transform="translate(324,739)" d="m0 0h2l-1 11h-2l-1 2-1-3-3 1v-3h2l1-7z" fill="#A3BB28"/>
<path transform="translate(331,681)" d="m0 0 8 1 1 3-1 2-9 1v-6z" fill="#1272A9"/>
<path transform="translate(786,300)" d="m0 0h9v3l-1 2-11 1v-2l2-1z" fill="#A3BC29"/>
<path transform="translate(404,247)" d="m0 0 3 4v8h-5l-1-2v-7h2z" fill="#E7F9FB"/>
<path transform="translate(403,231)" d="m0 0h8l5 3 2 2v6h-4l-2-6v-3l-9-1z" fill="#C9EFF6"/>
<path transform="translate(466,195)" d="m0 0h7l3 1v4h-11l-1-4z" fill="#138FCA"/>
<path transform="translate(454,181)" d="m0 0h1v27h-3v-8l-1-4 1-8h1z" fill="#35B0E8"/>
<path transform="translate(458,711)" d="m0 0h3l2 4h-2l-2 6-5-2v-5z" fill="#FAFDFC"/>
<path transform="translate(343,511)" d="m0 0h4v2l-5 4-5 1-6-1 1-3v2l7-4z" fill="#1276AE"/>
<path transform="translate(782,413)" d="m0 0h11l1 2 4 2h-17l-1-2h2z" fill="#AAC42D"/>
<path transform="translate(111,307)" d="m0 0 7 2v2l-5 1-5 4-3-1 1-4 1-3z" fill="#1191CC"/>
<path transform="translate(800,295)" d="m0 0 3 1-1 2-2 1 1 1 1 2-2 1-1 3-3-2-2-1 1-2-6-1 3-2z" fill="#A8C73B"/>
<path transform="translate(605,240)" d="m0 0h8l1 7-6-1-2-1-1 2z" fill="#CFF1F7"/>
<path transform="translate(284,233)" d="m0 0h1v22l-1 2-3-1h2l-1-4v-8l-1-3z" fill="#E1F7FA"/>
<path transform="translate(634,745)" d="m0 0 5 5 8 11-2 1v-2l-4-1-1-4-4-2v-3h-2z" fill="#9FBC49"/>
<path transform="translate(328,515)" d="m0 0 1 3-1 4-11 1-3-1v-2l13-3z" fill="#1A8DC7"/>
<path transform="translate(575,498)" d="m0 0 8 1 6 1-3 3-6 1-10-3 4-2z" fill="#CAEFF6"/>
<path transform="translate(323,483)" d="m0 0h2v8l-1 2-5-1-1-5z" fill="#E4F6F9"/>
<path transform="translate(524,370)" d="m0 0 1 3h3l3 7v4h-2v-2h-2l-2-3v-3l-3-1 1-4z" fill="#4BBAEB"/>
<path transform="translate(511,358)" d="m0 0 9 3 1 5-7 1-3-6z" fill="#148BC7"/>
<path transform="translate(410,240)" d="m0 0 2 1 1 5-1 7 2 4h-2l-4-7-1-5z" fill="#F4FCFC"/>
<path transform="translate(330,780)" d="m0 0h4l1 3-2 4-6 1-1-5z" fill="#1190CB"/>
<path transform="translate(518,670)" d="m0 0 10 1v4h-7l-5 1v-5z" fill="#1886C0"/>
<path transform="translate(361,500)" d="m0 0h3l-1 6-4 2h-6v-3z" fill="#116FA6"/>
<path transform="translate(358,463)" d="m0 0 5 1 1 6-4 1-5-4 1-3z" fill="#D1F1F7"/>
<path transform="translate(512,380)" d="m0 0h4l2 4 8 2 3 4h-5l-1 3-1-5-5-2z" fill="#39B3EA"/>
<path transform="translate(637,243)" d="m0 0h7l1 1v9l-4-4-4-1-1-4z" fill="#E2F7FA"/>
<path transform="translate(258,232)" d="m0 0h1v25h-3v-19z" fill="#0A6096"/>
<path transform="translate(367,795)" d="m0 0 1 3-3 6-2 7-3 1-10-3-2-2 6 1 7 1 4-13z" fill="#95B460"/>
<path transform="translate(332,462)" d="m0 0 6 2 2 3-6 4h-3z" fill="#E5F7FA"/>
<path transform="translate(559,338)" d="m0 0 6 1 3 4h-14l1-3z" fill="#127EB8"/>
<path transform="translate(630,230)" d="m0 0 10 1 3 2 1 7-6-2v-4h-2v-2l-6-1z" fill="#E1F7FA"/>
<path transform="translate(578,532)" d="m0 0m-2 1 2 1-5 6h2l3 5-5 2-2-3v-7z" fill="#E5F8FA"/>
<path transform="translate(338,460)" d="m0 0 13 1 2 1v2l3 3-3 1-9-4-6-3z" fill="#1F9DD8"/>
<path transform="translate(98,316)" d="m0 0 1 2-3 8-2-1-3 6h-1l1-9 2-3 1 1z" fill="#A2BE32"/>
<path transform="translate(279,270)" d="m0 0 10 1 5 1v1l-6 1v2l-3 1-2-4-4 1-1 3h-2l2-6z" fill="#A6946B"/>
<path transform="translate(588,254)" d="m0 0h8l2 4-1 1h-14v-1l5-1z" fill="#C9EFF6"/>
<path transform="translate(470,252)" d="m0 0 9 3 1 2-4 2-2 2-4-2-1-6z" fill="#EBFAFB"/>
<path transform="translate(455,237)" d="m0 0 3 2 1 15-2 2-3-13v-5z" fill="#C9EFF6"/>
<path transform="translate(200,230)" d="m0 0 8 6 6 7-3 1-5-5v-2l-5-2-3-2v-2z" fill="#128BC6"/>
<path transform="translate(393,135)" d="m0 0h16l-1 2-9 1h-15v-1z" fill="#98BA5B"/>
<path transform="translate(263,134)" d="m0 0 6 5 4 6 5 7-1 3-10-13-4-6z" fill="#A3BB26"/>
<path transform="translate(426,723)" d="m0 0 2 2 1 4v9h-1l-1-6-8 1 6-8z" fill="#239BD4"/>
<path transform="translate(386,586)" d="m0 0 4 2 11 7 8 6-1 2-10-7-13-8z" fill="#AE9568"/>
<path transform="translate(259,527)" d="m0 0h6l15 6 6 2v2l-5-1-22-8z" fill="#A3916D"/>
<path transform="translate(123,473)" d="m0 0h17l2 3 1 15h-2l-2-15-1-1-15-1z" fill="#8AA36C"/>
<path transform="translate(613,403)" d="m0 0 5 2 4 8h-7l-2-7z" fill="#E5F8FA"/>
<path transform="translate(253,341)" d="m0 0 2 1v6l-4 9-2-3 1-5z" fill="#D9954A"/>
<path transform="translate(106,306)" d="m0 0 5 1-4 1-1 6-7 18-1-3 7-22z" fill="#1181BC"/>
<path transform="translate(616,270)" d="m0 0h7l4 3-1 2-3-2-1 2-14-2v-1z" fill="#AF9269"/>
<path transform="translate(631,239)" d="m0 0 5 2 2 2-1 2v4h-4l-2-5 1-1-4-2z" fill="#39B3EA"/>
<path transform="translate(299,236)" d="m0 0h7l2 2-5 1v2l-6 4v-8z" fill="#1593CF"/>
<path transform="translate(722,204)" d="m0 0 2 1-2 3h-3v2h-2v2l-5 2v2l-3 2h-3v2l-4 1 5-5z" fill="#A0C753"/>
<path transform="translate(428,714)" d="m0 0 3 2v17l-2 1-2-9z" fill="#148AC4"/>
<path transform="translate(155,579)" d="m0 0 5 1 2 6-7-2-9-1 3-2z" fill="#E6F9FB"/>
<path transform="translate(551,548)" d="m0 0h4l-2 5-11 4-1-4h3l4-1v-2h3z" fill="#E5F8FA"/>
<path transform="translate(514,483)" d="m0 0 12 2-1 3-8 1v2l3 1-3 1-3-9z" fill="#85CBE5"/>
<path transform="translate(645,411)" d="m0 0 3 3 3 6-1 3-9-4v-2l4-1z" fill="#1788C2"/>
<path transform="translate(517,370)" d="m0 0 4 2v6l-4-1-2 2v-2l-3-1 1-3z" fill="#24A1DC"/>
<path transform="translate(579,138)" d="m0 0 1 2-2 6v11 3l-4-3 1-10z" fill="#94B361"/>
<path transform="translate(249,129)" d="m0 0 2 1-8 7-11 8v-3l9-7h2v-2z" fill="#9BBE5D"/>
<path transform="translate(685,653)" d="m0 0 6 1 4 4-7-1-3-2-2 6-5 5-2-1 5-6z" fill="#96B75E"/>
<path transform="translate(377,454)" d="m0 0h9l9 2-4 3-12-1 1-3z" fill="#1D97D2"/>
<path transform="translate(222,424)" d="m0 0 3 1-3 10-4 1 1-7z" fill="#DF8D39"/>
<path transform="translate(369,246)" d="m0 0h6l-2 7-5 2v-8z" fill="#1280BA"/>
<path transform="translate(452,232)" d="m0 0 6 2 1 5-4-1v7l-2 1-1-5z" fill="#E6F8FA"/>
<path transform="translate(589,98)" d="m0 0h2l-1 8-5 14h-2l3-10 2-10z" fill="#1183BE"/>
<path transform="translate(359,671)" d="m0 0h11v4h-11l-1-2z" fill="#136EA3"/>
<path transform="translate(279,360)" d="m0 0 2 1v11h-3l-2-6v-4z" fill="#179DDA"/>
<path transform="translate(509,359)" d="m0 0h2l3 6-1 4-2 2v-3h-3l-1-4z" fill="#37B2E9"/>
<path transform="translate(310,278)" d="m0 0h7l10 3-4 1-7 1-5-2z" fill="#BB9D62"/>
<path transform="translate(287,273)" d="m0 0h9l1 2h-2v2l2 1-5 1-6-2 2-1z" fill="#D4A55F"/>
<path transform="translate(606,245)" d="m0 0 7 2-4 7-4-1v-6z" fill="#1796D1"/>
<path transform="translate(376,777)" d="m0 0 2 3h-2v2l3 1-2 8-3-1-2-4z" fill="#A8C63A"/>
<path transform="translate(291,724)" d="m0 0 4 2 15 8-2 1-14-7-3-2-2 5-1-4z" fill="#A0C753"/>
<path transform="translate(746,568)" d="m0 0h8l7 4 1 3-9-2-2-1v-2l-5-1z" fill="#1190CB"/>
<path transform="translate(314,405)" d="m0 0 4 1-9 4h-5l-2-4z" fill="#1C9DD8"/>
<path transform="translate(235,192)" d="m0 0 4 5 7 9 1 4-5 4 1-10h-2l-6-9z" fill="#99BB64"/>
<path transform="translate(358,80)" d="m0 0 5 1 4 10 1 6-2-2-4-11-9 1v-2z" fill="#95B55F"/>
<path transform="translate(385,761)" d="m0 0 31 4 1 2-26-3h-5l-2 1z" fill="#A0C753"/>
<path transform="translate(542,545)" d="m0 0 5 1-4 4-1 6h2v2l-5 1-2-5 3-4z" fill="#289FD5"/>
<path transform="translate(530,528)" d="m0 0 6 1 1 5-1 3h-3v-2l-3 1z" fill="#1897D1"/>
<path transform="translate(259,525)" d="m0 0 15 1 1 3 3 3-8-2-11-4z" fill="#DF8935"/>
<path transform="translate(548,513)" d="m0 0 4 1v5l-5 2-2-4v-3z" fill="#F2FCFC"/>
<path transform="translate(765,514)" d="m0 0h6l18 6v1l-10-1-8-3h-5z" fill="#A1C038"/>
<path transform="translate(608,397)" d="m0 0 3 3 4 8-1 3-4-2-2-9z" fill="#0F6EA4"/>
<path transform="translate(492,364)" d="m0 0 3 1 1 2 6 2-1 6-4-1z" fill="#177FB5"/>
<path transform="translate(360,327)" d="m0 0h4l-1 16h-2z" fill="#166D9F"/>
<path transform="translate(500,314)" d="m0 0 2 4-4 5-4 1-1-5h2v-2z" fill="#CF9B59"/>
<path transform="translate(578,281)" d="m0 0 4 1-2 1h5v2l-7 2-3-1v-2l-6 1 2-2z" fill="#C7A161"/>
<path transform="translate(327,242)" d="m0 0h3v15l-4-2z" fill="#0F76B0"/>
<path transform="translate(325,503)" d="m0 0 2 4 1 10-5 2-4-1 4-2z" fill="#E1F7FA"/>
<path transform="translate(608,505)" d="m0 0 8 1 3 4-10 4-3-2 7-2-2-3z" fill="#208FC6"/>
<path transform="translate(534,501)" d="m0 0 18 2v1l-9 1-1 3h-3v-2l-6-1 2-1z" fill="#C9EFF6"/>
<path transform="translate(322,477)" d="m0 0v3l-4 5 1 2-2 4-3-2-2-4h-2l1-2 4 1z" fill="#1891CC"/>
<path transform="translate(537,363)" d="m0 0h5l1 7-4-1-4-2v-3z" fill="#1798D4"/>
<path transform="translate(489,247)" d="m0 0h1l1 8 2 1-3 3-3 1-3-3 4-5z" fill="#39B3EA"/>
<path transform="translate(480,249)" d="m0 0h3l-2 4-2 2h-5l-2-3 2-2z" fill="#1D99D1"/>
<path transform="translate(660,239)" d="m0 0 4 1 1 5-5 1-3-3 1-3z" fill="#C9EFF6"/>
<path transform="translate(608,239)" d="m0 0h10l1 1v7l-4 2-2-9h-5z" fill="#2CABE4"/>
<path transform="translate(242,231)" d="m0 0h9l5 2v4h-5l-2-3-7-2z" fill="#DAF5F9"/>
<path transform="translate(305,789)" d="m0 0 5 5v5l-5 1-1-1z" fill="#A3BB26"/>
<path transform="translate(464,717)" d="m0 0h1l1 5v7l-3 3-1-2v-8z" fill="#1993CD"/>
<path transform="translate(331,670)" d="m0 0 7 1 1 4-3 1-6-1z" fill="#186FA1"/>
<path transform="translate(292,374)" d="m0 0h1l1 14 3 9-5-3-1-5z" fill="#2B8AB9"/>
<path transform="translate(290,370)" d="m0 0h1l1 9v10l-2 2-1-1v-10z" fill="#0C6BA3"/>
<path transform="translate(163,195)" d="m0 0 5 1 5 4-1 2-9-1z" fill="#A2BE33"/>
<path transform="translate(478,131)" d="m0 0 16 3 9 1v1h-15l-8-1z" fill="#A4C972"/>
<path transform="translate(463,665)" d="m0 0h1l1 25-3-3 1-12h-2v-4h2z" fill="#30ABE3"/>
<path transform="translate(508,594)" d="m0 0 2 1-2 3-7 3-6 5-6 2v-2z" fill="#1187C2"/>
<path transform="translate(757,520)" d="m0 0 11 2 2 1v2h-9l-4-2z" fill="#1288C3"/>
<path transform="translate(326,474)" d="m0 0h1l-1 7-3 1-1 3-4 1-1-2h2l2-4z" fill="#1076AF"/>
<path transform="translate(361,234)" d="m0 0 4 2 1 4-2 1-1 17h-1z" fill="#C9EFF6"/>
<path transform="translate(686,156)" d="m0 0 4 1 1 3-6 8-3 3 1-4 3-3-1-6z" fill="#117EB9"/>
<path transform="translate(227,697)" d="m0 0 4 1v3l-6 4-1 3h-3l1-4z" fill="#A3BC31"/>
<path transform="translate(658,689)" d="m0 0 5 5 9 12v2l-3-1-8-12-3-4z" fill="#118BC6"/>
<path transform="translate(213,663)" d="m0 0 4 2 2 4h-9l-2-2z" fill="#E2F7FA"/>
<path transform="translate(153,621)" d="m0 0 2 1-7 7-6 4-4-1 14-10z" fill="#A7C73E"/>
<path transform="translate(373,578)" d="m0 0 9 3 4 4-2 2-11-6z" fill="#BB9662"/>
<path transform="translate(354,563)" d="m0 0 5 2 9 5v2l-5-1-6-4-4-3z" fill="#D8A763"/>
<path transform="translate(800,531)" d="m0 0 5 2 1 1 7 1 2 2v4l-3 1-1-4-10-4z" fill="#A5CA78"/>
<path transform="translate(302,518)" d="m0 0 12 2v2l3 1h-11l-5-1z" fill="#127AB4"/>
<path transform="translate(367,467)" d="m0 0h1l2 9 4 4-6-2-7-6 4-3 1 3z" fill="#178AC4"/>
<path transform="translate(331,404)" d="m0 0h10l-1 3h-15l2-2z" fill="#117BB5"/>
<path transform="translate(608,387)" d="m0 0h9l8 1 1 2h-12l-2 1-3-1z" fill="#1673A7"/>
<path transform="translate(247,362)" d="m0 0h1l-1 7-2 5h-2l-1-6 2-5 2 1z" fill="#D49751"/>
<path transform="translate(387,247)" d="m0 0 8 1-4 2 1 4-4 1-1-1z" fill="#158EC9"/>
<path transform="translate(755,218)" d="m0 0 4 2 4 6-1 3-3-3-4-1z" fill="#A3BE2E"/>
<path transform="translate(530,117)" d="m0 0h2l-1 5-6 16h-2l3-10z" fill="#1189C4"/>
<path transform="translate(520,681)" d="m0 0 9 1v5l-6 1 3-4h-8l-1-2z" fill="#1A7FB4"/>
<path transform="translate(574,671)" d="m0 0 1 2v10l-3-1-1 2-1-1v-6z" fill="#E9FAFB"/>
<path transform="translate(487,670)" d="m0 0h6l2 1v4h-8z" fill="#197EB1"/>
<path transform="translate(810,528)" d="m0 0 9 2 4 2v4l-5-1-4-4-4-1z" fill="#A3BD35"/>
<path transform="translate(406,431)" d="m0 0h1v23l-2 3-1-3 1-18z" fill="#C8A75E"/>
<path transform="translate(571,355)" d="m0 0 6 2 1 9-3-1-4-7z" fill="#1277AE"/>
<path transform="translate(555,354)" d="m0 0 5 1 2 12-3-3-5-9z" fill="#0F6DA4"/>
<path transform="translate(248,240)" d="m0 0h3l3 6v2l-6-1-1-1v-5z" fill="#CAEFF6"/>
<path transform="translate(329,743)" d="m0 0 1 4-5 15h-2l2-9z" fill="#1187C2"/>
<path transform="translate(562,523)" d="m0 0h7l5 1v2l-10 2-2-2z" fill="#BEE0E6"/>
<path transform="translate(83,352)" d="m0 0 3 3v7l-5-2v-7z" fill="#A3BC29"/>
<path transform="translate(809,330)" d="m0 0h2l3 10 3 9h-2l-4-9z" fill="#A3BB26"/>
<path transform="translate(241,214)" d="m0 0 2 1-14 14-2 3h-2l2-4z" fill="#138DC9"/>
<path transform="translate(442,724)" d="m0 0h2l-1 8-3 1-2-1v-5l4-1z" fill="#1576AC"/>
<path transform="translate(457,710)" d="m0 0h10l2 2-4 1-1 3-3-1v-4l-6 2z" fill="#E8F9FB"/>
<path transform="translate(521,674)" d="m0 0 6 1 2 5-4 1-4-4z" fill="#E3F7FA"/>
<path transform="translate(526,664)" d="m0 0h4v7l-2 1-5-1z" fill="#E6F9FB"/>
<path transform="translate(138,640)" d="m0 0h2l-2 4-1 3 1 4-5-4-1-3 3-3z" fill="#99BC5A"/>
<path transform="translate(572,532)" d="m0 0h5l-5 5-1 5-2-4-3-3z" fill="#1784BB"/>
<path transform="translate(551,519)" d="m0 0v3l-2 4-3 1-2-2v-5z" fill="#1B98D2"/>
<path transform="translate(443,489)" d="m0 0 5 1-1 16h-1l-1-6h-1z" fill="#B2B457"/>
<path transform="translate(366,480)" d="m0 0 2 1 1 3 1 4-3 9h-2z" fill="#0D6196"/>
<path transform="translate(510,372)" d="m0 0h1l1 8-6 2 1-9z" fill="#44B5E7"/>
<path transform="translate(590,354)" d="m0 0h5l-3 2 3 5-1 3-4-2-2-7z" fill="#C9EFF6"/>
<path transform="translate(560,355)" d="m0 0h7l2 4v4l-3-1-3-5-2-1v5h-1z" fill="#1075AE"/>
<path transform="translate(298,279)" d="m0 0h11l5 3v2l-16-4z" fill="#D1AD62"/>
<path transform="translate(392,247)" d="m0 0h4l1 2v10h-1l-1-5-4-1v-3l2-1z" fill="#27A7E1"/>
<path transform="translate(367,240)" d="m0 0h8l1 1v5h-7l2-2-1-3z" fill="#C9EFF6"/>
<path transform="translate(246,236)" d="m0 0 9 1 1 2-7 1-1 1v6h-2z" fill="#1971A3"/>
<path transform="translate(465,718)" d="m0 0 2 2h3v8h-4z" fill="#E7F9FB"/>
<path transform="translate(483,711)" d="m0 0 2 1-2 4-1 4-4 1-1-5z" fill="#DEF6F9"/>
<path transform="translate(535,681)" d="m0 0 4 2 1 5-5 2-1-7z" fill="#E2F7FA"/>
<path transform="translate(433,668)" d="m0 0h2v8l-2 1-2-1-1-7z" fill="#FAFDFC"/>
<path transform="translate(531,666)" d="m0 0 3 1 1 4-1 11h-2v-7z" fill="#128EC9"/>
<path transform="translate(274,527)" d="m0 0 6 1 7 3-2 2-4-1-9-3z" fill="#CF9B58"/>
<path transform="translate(369,518)" d="m0 0 7 1 10 2-1 2-14-2-3-2z" fill="#1B8EC8"/>
<path transform="translate(551,496)" d="m0 0 11 1-2 6-3 7-1-4 2-8-7-1z" fill="#2B84AF"/>
<path transform="translate(559,491)" d="m0 0 9 2-3 2h-2l-1 2h-8v-1h5v-3l-2-1z" fill="#C0EBF5"/>
<path transform="translate(343,482)" d="m0 0h4v4l-5 2v3h-2l1-7z" fill="#1282BC"/>
<path transform="translate(143,481)" d="m0 0 2 2 1 11-1 6h-1l-2-18z" fill="#1190CC"/>
<path transform="translate(574,449)" d="m0 0 6 2 1 6-2 2-3-3z" fill="#F2FDFD"/>
<path transform="translate(459,252)" d="m0 0 4 5v3h-6l-4-3 4-1z" fill="#39B3EA"/>
<path transform="translate(650,756)" d="m0 0 5 1-1 4-3 2h-3l-1-5z" fill="#169BD8"/>
<path transform="translate(793,581)" d="m0 0 6 2-4 4-8-3v-1z" fill="#159AD7"/>
<path transform="translate(741,569)" d="m0 0 12 3 4 2-4 1-6-1-7-3z" fill="#94B360"/>
<path transform="translate(117,525)" d="m0 0m-11 1 6 1 5-1v2l-4 2h-7l-3 1 1-4z" fill="#9CB844"/>
<path transform="translate(588,508)" d="m0 0 7 1 1 4-2 1-6-2z" fill="#F3FBFB"/>
<path transform="translate(800,354)" d="m0 0 5 2 4 1-8 3h-5v-2z" fill="#118FCA"/>
<path transform="translate(546,347)" d="m0 0 3 1h8l1 3h-14z" fill="#0A6096"/>
<path transform="translate(801,315)" d="m0 0h2v3l3 1 1 9 1 5h-2l-5-16z" fill="#97B559"/>
<path transform="translate(533,297)" d="m0 0 7 1-1 4-6 2-1-3z" fill="#CFA167"/>
<path transform="translate(128,242)" d="m0 0v3l1 6 4 5-4-2-6-5v-2h2l2-4z" fill="#A2C453"/>
<path transform="translate(385,231)" d="m0 0h7l3 2-6 1-2-1h-4l-1 10h-1v-9l1-2z" fill="#C9EFF6"/>
<path transform="translate(156,218)" d="m0 0h2v3h-2v3h-2l-2 5-3 2v-3z" fill="#118CC7"/>
<path transform="translate(722,216)" d="m0 0 2 1-9 8-4 3-2-1 5-5z" fill="#118EC9"/>
<path transform="translate(685,162)" d="m0 0 1 3-4 5-3 1-1-4 4-4z" fill="#169CD9"/>
<path transform="translate(261,140)" d="m0 0 3 1 8 10 1 2h-3v-2h-2v-2h-2v-2h-2l-3-5z" fill="#118EC9"/>
<path transform="translate(525,481)" d="m0 0 6 1-1 2h-2l-1 3-1-2h-8l3-3z" fill="#CAEFF6"/>
<path transform="translate(524,381)" d="m0 0 5 1v3h3v4l-5-1-3-5z" fill="#1485C1"/>
<path transform="translate(547,374)" d="m0 0 4 2v2h2l4 7-1 3-6-9v-2l-4-1z" fill="#E7F9FB"/>
<path transform="translate(584,354)" d="m0 0 4 1 1 6-5-5 1 3h-5l-1-2 1-2z" fill="#137CB6"/>
<path transform="translate(557,343)" d="m0 0h5l2 4-3 1v-2l-4 2h-3v-4z" fill="#39B3EA"/>
<path transform="translate(573,284)" d="m0 0h2v2l3 1-5 2-9-1 3-2z" fill="#DE8B35"/>
<path transform="translate(139,244)" d="m0 0 3 3 3 5-3 1-5-4-1-3z" fill="#118FCA"/>
<path transform="translate(537,241)" d="m0 0 3 2v3 5l3 1-3 1-3-3-1-7z" fill="#21A3DE"/>
<path transform="translate(656,236)" d="m0 0 9 1v2l-9 2-1-4z" fill="#0F6BA2"/>
<path transform="translate(483,118)" d="m0 0h1l1 10-4 1-1-4z" fill="#ABC62E"/>
<path transform="translate(378,108)" d="m0 0 2 3 2 9-3 1v-3l-2-1z" fill="#A8C73A"/>
<path transform="translate(587,804)" d="m0 0 2 1-5 3-9 3-4-1 10-4z" fill="#F1FCFC"/>
<path transform="translate(596,503)" d="m0 0h5l1 6-8-1 2-1z" fill="#CBEFF6"/>
<path transform="translate(767,488)" d="m0 0h1v8l-2 7h-1v-12z" fill="#A3BE2F"/>
<path transform="translate(139,316)" d="m0 0 9 2 3 2-6 2-6-3z" fill="#33A7DB"/>
<path transform="translate(730,272)" d="m0 0 2 1-9 6-3 1 2-5z" fill="#1388C3"/>
<path transform="translate(624,236)" d="m0 0h3l-3 11h-2l-1-8z" fill="#FDFDFD"/>
<path transform="translate(525,178)" d="m0 0 8 4-1 3-6-1-1-1z" fill="#1190CB"/>
<path transform="translate(449,717)" d="m0 0h1v11l-2 4-2-6 1-5z" fill="#E6F8FA"/>
<path transform="translate(99,566)" d="m0 0 2 4 3 8v4h-2l-4-12z" fill="#9EBA4B"/>
<path transform="translate(535,555)" d="m0 0 4 2 3 2-1 3h-2l-1 2-3-3v-4z" fill="#1191CC"/>
<path transform="translate(338,504)" d="m0 0 4 1 4 3v3l-5 1-1-3 1-1-3-2z" fill="#1993CE"/>
<path transform="translate(581,469)" d="m0 0 2 1 1 8-5-3v-5z" fill="#F2FDFD"/>
<path transform="translate(607,400)" d="m0 0 2 1 1 7-7-1-1-2 3-2z" fill="#1483BE"/>
<path transform="translate(362,376)" d="m0 0 3 1v2l-7 1h-8l1-2z" fill="#2097CD"/>
<path transform="translate(524,367)" d="m0 0 6 1-1 5h-4l-2-2z" fill="#158FCB"/>
<path transform="translate(303,255)" d="m0 0h8l-2 1v3h-9l2-1z" fill="#F6FDFC"/>
<path transform="translate(376,241)" d="m0 0h1v12l-1 5h-1l-1-5-1-3z" fill="#35B0E8"/>
<path transform="translate(439,180)" d="m0 0h7l2 4h-9l-1-3z" fill="#117DB8"/>
<path transform="translate(322,762)" d="m0 0h2l-1 7-2 5h-2l2-10z" fill="#118CC7"/>
<path transform="translate(215,729)" d="m0 0h2l1 7-4 1-2-4z" fill="#118EC9"/>
<path transform="translate(292,713)" d="m0 0 5 1 2 1v2l-4 1-5-2-3 2 2-4z" fill="#1191CC"/>
<path transform="translate(448,687)" d="m0 0 4 1 2 4-2 1h-8l4-1z" fill="#EFFCFC"/>
<path transform="translate(662,679)" d="m0 0v3 11l-4-4 1-7z" fill="#97B56B"/>
<path transform="translate(768,655)" d="m0 0 3 1-6 8-2-1 2-7 3 1z" fill="#A0C750"/>
<path transform="translate(520,499)" d="m0 0 4 3v2l4 1-2 4h-2l-4-7z" fill="#3EABDB"/>
<path transform="translate(536,500)" d="m0 0 12 1h3l3 1v2l-15-1-3-1z" fill="#2B95C6"/>
<path transform="translate(759,496)" d="m0 0 2 3v6l-2 7h-2z" fill="#93B069"/>
<path transform="translate(324,491)" d="m0 0 3 1 2 3 3 5-6-2-5-5h3z" fill="#1C9EDA"/>
<path transform="translate(552,359)" d="m0 0 2 4-7 4-2-4z" fill="#1593CE"/>
<path transform="translate(545,347)" d="m0 0v3l10 1v1l-15 1-2 1 2-4z" fill="#2597CC"/>
<path transform="translate(766,316)" d="m0 0h4v2l-9 3h-5l1-2z" fill="#1190CB"/>
<path transform="translate(611,273)" d="m0 0 9 1-4 3h-5v-2l-3-1z" fill="#E08A34"/>
<path transform="translate(309,249)" d="m0 0h2l-2 4-3 2-6-1-1-2 10-1z" fill="#2986B2"/>
<path transform="translate(253,252)" d="m0 0h3v6l-9-3 3-2z" fill="#C9EFF6"/>
<path transform="translate(629,236)" d="m0 0h8v2l-6 2h-6z" fill="#1471A5"/>
<path transform="translate(299,171)" d="m0 0 2 1-5 5h-5l-4-5 4 2 4-1z" fill="#9DC064"/>
<path transform="translate(542,670)" d="m0 0h5l3 2-1 3-6-1z" fill="#188FCA"/>
<path transform="translate(210,650)" d="m0 0 6 1-3 2-7 6h-2l1-3 2-1 1-3h2z" fill="#1082BD"/>
<path transform="translate(182,612)" d="m0 0 2 1-5 4-7 4h-2v-2z" fill="#128DC8"/>
<path transform="translate(347,482)" d="m0 0 5 1 2 2-1 3-2-1h-4z" fill="#1393CE"/>
<path transform="translate(552,375)" d="m0 0 6 1v3 3l-3 1-3-5z" fill="#1A95CF"/>
<path transform="translate(574,254)" d="m0 0 5 1 1 4h-10l3-2-1-2z" fill="#C9EFF6"/>
<path transform="translate(362,232)" d="m0 0h6l2 4h-3v2h-2l-3-4z" fill="#EFFCFC"/>
<path transform="translate(313,783)" d="m0 0 2 1-1 10 2 2-4-1-1-3v-8z" fill="#97B85D"/>
<path transform="translate(438,718)" d="m0 0 4 5v3l-5 2z" fill="#1B98D2"/>
<path transform="translate(227,707)" d="m0 0 2 1-2 5-4 4h-2l2-5 2-3h2z" fill="#9EC454"/>
<path transform="translate(462,665)" d="m0 0h1v6l-12-1v-1l6-1v-1h5z" fill="#EFFBFC"/>
<path transform="translate(815,552)" d="m0 0h1l-1 9h-3v-6z" fill="#A2BD2E"/>
<path transform="translate(139,521)" d="m0 0h6l-3 3-10 2v-2z" fill="#1180BB"/>
<path transform="translate(368,504)" d="m0 0 1 4-2 5-2 1v-9z" fill="#0F6FA7"/>
<path transform="translate(454,249)" d="m0 0 3 1v7h-4z" fill="#EFFCFC"/>
<path transform="translate(318,236)" d="m0 0h1v16l-2-2-1-7z" fill="#1188C3"/>
<path transform="translate(479,237)" d="m0 0 6 1 1 5h-4v-3h-3z" fill="#1799D5"/>
<path transform="translate(408,236)" d="m0 0 4 1-2 4-3 2-1-1v-5z" fill="#1B82B8"/>
<path transform="translate(561,237)" d="m0 0h2v14l-2-2-1-11z" fill="#117AB5"/>
<path transform="translate(576,734)" d="m0 0 2 1-2 4 1 2v8l-2-4-2-7z" fill="#98B85A"/>
<path transform="translate(206,736)" d="m0 0 9 1 1 4-5-1z" fill="#A4BC28"/>
<path transform="translate(680,706)" d="m0 0h2l6 9-1 3-7-10z" fill="#A2BF35"/>
<path transform="translate(427,682)" d="m0 0 4 1v5l-3 1-2-4h-2v-2z" fill="#2386B5"/>
<path transform="translate(765,642)" d="m0 0 4 1-1 5-6 8-2-1 6-8z" fill="#90AC66"/>
<path transform="translate(534,549)" d="m0 0 5 1v5h-5l-1-4z" fill="#1180BB"/>
<path transform="translate(129,524)" d="m0 0h3v2l2 1-4 2-5-1z" fill="#118EC9"/>
<path transform="translate(525,510)" d="m0 0 2 3 3 4-2 6-2-4-2-8z" fill="#1B91CB"/>
<path transform="translate(573,372)" d="m0 0 3 1 1 4-6-1-3-2z" fill="#126CA1"/>
<path transform="translate(284,336)" d="m0 0 3 1v8l-3 3z" fill="#C9EFF6"/>
<path transform="translate(538,294)" d="m0 0 4 1-10 4h-2v2l-4-1h2l1-3z" fill="#82CBE5"/>
<path transform="translate(637,250)" d="m0 0 2 2-4 3-5-1-1-2z" fill="#1D8CC2"/>
<path transform="translate(339,543)" d="m0 0 5 5v2l-4-1-3-3 1-2z" fill="#EBFAFB"/>
<path transform="translate(581,526)" d="m0 0 4 1-8 6-3-2z" fill="#229DD5"/>
<path transform="translate(563,504)" d="m0 0 5 2 8 6-3 1-10-7z" fill="#4F849B"/>
<path transform="translate(323,457)" d="m0 0h5v2l2 1-5 1-6-2z" fill="#0A649B"/>
<path transform="translate(394,253)" d="m0 0 2 1v5h-5v-5z" fill="#C9EFF6"/>
<path transform="translate(406,247)" d="m0 0h2l3 7-1 3h-2l-2-6z" fill="#136FA3"/>
<path transform="translate(651,242)" d="m0 0 4 1v6l-4 1z" fill="#FEFEFD"/>
<path transform="translate(256,240)" d="m0 0h1v17h-1v-5l-5 1 4-4z" fill="#1C9BD6"/>
<path transform="translate(606,236)" d="m0 0 8 1-2 2-6 2-2-3z" fill="#1375AB"/>
<path transform="translate(232,195)" d="m0 0h2v3h2l4 6-1 2-3-2v-2l-3-1z" fill="#A3BB26"/>
<path transform="translate(541,79)" d="m0 0 6 4-4 1-2-1-1 5h-1l1-8z" fill="#92B063"/>
</svg>
